<?xml version="1.0" encoding="utf-8"?>
<!-- Generator: Adobe Illustrator 15.0.0, SVG Export Plug-In . SVG Version: 6.00 Build 0)  -->
<svg version="1.2" baseProfile="tiny" id="Check_1_"
	 xmlns="http://www.w3.org/2000/svg" xmlns:xlink="http://www.w3.org/1999/xlink" x="0px" y="0px" width="314.063px"
	 height="314.064px" viewBox="0 0 314.063 314.064" overflow="inherit" xml:space="preserve">
<path d="M293.001,78.528C249.646,3.433,153.618-22.298,78.529,21.066C3.434,64.416-22.298,160.44,21.066,235.532
	c43.35,75.095,139.375,100.83,214.465,57.47C310.626,249.638,336.371,153.618,293.001,78.528z M219.833,265.799
	c-60.066,34.692-136.894,14.106-171.576-45.973C13.568,159.759,34.161,82.933,94.23,48.258
	c60.07-34.69,136.894-14.106,171.578,45.971C300.493,154.305,279.906,231.115,219.833,265.799z"/>
<path d="M248.048,107.62l-14.098-14.098c-2.051-2.05-4.488-3.075-7.309-3.075c-2.816,0-5.254,1.025-7.303,3.075l-82.915,82.914
	l-33.702-33.704c-2.051-2.051-4.486-3.074-7.305-3.074s-5.253,1.023-7.304,3.074l-14.096,14.096
	c-2.05,2.051-3.077,4.486-3.077,7.307c0,2.818,1.026,5.254,3.077,7.305l55.104,55.104c2.051,2.052,4.486,3.075,7.305,3.075
	c2.817,0,5.253-1.023,7.304-3.075l104.316-104.314c2.049-2.05,3.076-4.486,3.076-7.305
	C251.123,112.104,250.097,109.669,248.048,107.62z"/>
</svg>
