<?xml version="1.0" encoding="utf-8"?>
<!-- Generator: Adobe Illustrator 15.0.0, SVG Export Plug-In . SVG Version: 6.00 Build 0)  -->
<svg version="1.2" baseProfile="tiny" id="Fax" xmlns="http://www.w3.org/2000/svg" xmlns:xlink="http://www.w3.org/1999/xlink"
	 x="0px" y="0px" width="314.063px" height="314.064px" viewBox="0 0 314.063 314.064" overflow="inherit" xml:space="preserve">
<path d="M293.001,78.528C249.646,3.433,153.618-22.298,78.529,21.066C3.434,64.416-22.298,160.44,21.066,235.532
	c43.35,75.095,139.375,100.83,214.465,57.47C310.626,249.638,336.371,153.618,293.001,78.528z M219.833,265.799
	c-60.066,34.692-136.894,14.106-171.576-45.973C13.568,159.759,34.161,82.933,94.23,48.258
	c60.07-34.69,136.894-14.106,171.578,45.971C300.493,154.305,279.906,231.115,219.833,265.799z"/>
<g id="Fax_1_">
	<g>
		<path fill="#090909" d="M115.05,203.857v31.748h84.662v-31.748v-21.169H115.05V203.857z M125.632,193.275h63.496v10.582h-63.496
			V193.275z M125.632,214.439h63.496v10.584h-63.496V214.439z"/>
		<polygon fill="#090909" points="199.711,108.607 199.711,76.859 115.05,76.859 115.05,108.607 115.05,129.775 199.711,129.775 		
			"/>
		<path fill="#090909" d="M220.879,108.607h-10.582v21.168v10.583H104.464v-10.583v-21.168H93.881
			c-10.583,0-21.166,10.583-21.166,21.168v52.913c0,10.587,10.583,21.169,21.166,21.169h10.583v-21.169v-10.582h105.833v10.582
			v21.169h10.582c10.584,0,21.166-10.582,21.166-21.169v-52.913C242.045,119.189,231.463,108.607,220.879,108.607z"/>
	</g>
</g>
</svg>
