<?xml version="1.0" encoding="utf-8"?>
<!-- Generator: Adobe Illustrator 15.0.0, SVG Export Plug-In . SVG Version: 6.00 Build 0)  -->
<svg version="1.2" baseProfile="tiny" id="Location"
	 xmlns="http://www.w3.org/2000/svg" xmlns:xlink="http://www.w3.org/1999/xlink" x="0px" y="0px" width="314.063px"
	 height="314.064px" viewBox="0 0 314.063 314.064" overflow="inherit" xml:space="preserve">
<path d="M293.001,78.528C249.646,3.433,153.618-22.298,78.529,21.066C3.434,64.416-22.298,160.44,21.066,235.532
	c43.35,75.095,139.375,100.83,214.465,57.47C310.626,249.638,336.371,153.618,293.001,78.528z M219.833,265.799
	c-60.066,34.692-136.894,14.106-171.576-45.973C13.568,159.759,34.161,82.933,94.23,48.258
	c60.07-34.69,136.894-14.106,171.578,45.971C300.493,154.305,279.906,231.115,219.833,265.799z"/>
<path d="M157.034,68.847c-35.219,0-63.876,28.654-63.876,63.873c0,43.711,57.163,107.879,59.599,110.588
	c2.283,2.547,6.276,2.544,8.555,0c2.437-2.709,59.599-66.877,59.599-110.588C220.91,97.501,192.253,68.847,157.034,68.847z
	 M157.034,164.858c-17.72,0-32.139-14.416-32.139-32.138c0-17.719,14.419-32.135,32.139-32.135
	c17.718,0,32.139,14.416,32.139,32.135C189.172,150.442,174.751,164.858,157.034,164.858z"/>
</svg>
