<?xml version="1.0" encoding="utf-8"?>
<!-- Generator: Adobe Illustrator 15.0.0, SVG Export Plug-In . SVG Version: 6.00 Build 0)  -->
<!DOCTYPE svg PUBLIC "-//W3C//DTD SVG 1.1//EN" "http://www.w3.org/Graphics/SVG/1.1/DTD/svg11.dtd">
<svg version="1.1" id="Ebene_6" xmlns="http://www.w3.org/2000/svg" xmlns:xlink="http://www.w3.org/1999/xlink" x="0px" y="0px"
	 width="302.712px" height="121.408px" viewBox="0 0 302.712 121.408" enable-background="new 0 0 302.712 121.408"
	 xml:space="preserve">
<g>
	<path d="M173.542,89.949c0.349,0.188,0.705,0.327,1.066,0.416c0.361,0.091,0.747,0.135,1.152,0.135
		c0.968,0,1.729-0.217,2.288-0.653c0.558-0.435,0.835-1.027,0.835-1.777c0-0.897-0.729-1.934-2.188-3.116l-0.012-0.012
		c-0.024-0.015-0.061-0.044-0.109-0.084c-2.104-1.681-3.155-3.168-3.155-4.459c0-0.592,0.13-1.177,0.391-1.755
		c0.261-0.576,0.63-1.104,1.11-1.583c0.724-0.707,1.501-1.245,2.33-1.613c0.829-0.371,1.684-0.556,2.562-0.556
		c0.635,0,1.11,0.106,1.427,0.314c0.317,0.21,0.476,0.525,0.476,0.944c0,0.145-0.052,0.337-0.157,0.575s-0.258,0.519-0.461,0.84
		c-0.318-0.126-0.643-0.224-0.972-0.292c-0.33-0.066-0.666-0.101-1.009-0.101c-1.043,0-1.86,0.233-2.451,0.7
		c-0.591,0.468-0.888,1.108-0.888,1.922c0,0.486,0.121,0.93,0.361,1.328c0.241,0.398,0.691,0.874,1.352,1.426
		c0.099,0.081,0.241,0.199,0.428,0.354c2.217,1.858,3.325,3.428,3.325,4.716c0,0.489-0.087,0.968-0.262,1.44
		c-0.175,0.473-0.437,0.937-0.786,1.394c-0.594,0.757-1.331,1.342-2.213,1.752c-0.883,0.412-1.836,0.617-2.859,0.617
		c-0.69,0-1.213-0.12-1.566-0.36c-0.354-0.24-0.531-0.592-0.531-1.057c0-0.211,0.042-0.436,0.125-0.677
		C173.235,90.485,173.365,90.227,173.542,89.949z"/>
	<path d="M185.256,82.872c-0.14,0-0.332,0.007-0.576,0.02c-0.244,0.014-0.404,0.02-0.478,0.02c-0.335,0-0.569-0.046-0.703-0.14
		c-0.135-0.093-0.203-0.255-0.203-0.484c0-0.106,0.019-0.229,0.056-0.371s0.096-0.305,0.177-0.484c0.065,0,0.176,0.005,0.332,0.012
		c0.154,0.008,0.277,0.012,0.366,0.012c0.214,0,0.553-0.012,1.018-0.037c0.056,0,0.102-0.002,0.135-0.012
		c0-0.088,0.004-0.224,0.013-0.403c0.007-0.18,0.012-0.31,0.012-0.391c0-0.635-0.042-1.194-0.123-1.68
		c-0.083-0.484-0.21-0.911-0.382-1.277c0.351-0.171,0.665-0.302,0.942-0.391c0.276-0.091,0.514-0.135,0.708-0.135
		c0.334,0,0.577,0.104,0.728,0.312c0.152,0.208,0.227,0.548,0.227,1.02c0,0.204-0.035,0.843-0.106,1.919
		c-0.024,0.398-0.044,0.717-0.059,0.953c0.474-0.065,0.904-0.113,1.285-0.145c0.381-0.032,0.724-0.049,1.026-0.049
		c0.271,0,0.465,0.049,0.585,0.146c0.118,0.097,0.179,0.255,0.179,0.474c0,0.122-0.038,0.274-0.112,0.456
		c-0.073,0.183-0.181,0.388-0.319,0.614c-0.214-0.052-0.439-0.091-0.676-0.118c-0.238-0.026-0.523-0.04-0.86-0.04
		c-0.056,0-0.229,0.007-0.515,0.02c-0.286,0.014-0.532,0.025-0.735,0.032c-0.071,1.271-0.123,2.317-0.155,3.138
		c-0.032,0.823-0.048,1.494-0.048,2.015c0,1.132,0.1,1.923,0.299,2.374c0.199,0.452,0.535,0.678,1.007,0.678
		c0.131,0,0.269-0.024,0.411-0.076c0.143-0.049,0.286-0.129,0.433-0.238c0.073,0.162,0.127,0.305,0.16,0.428
		c0.033,0.122,0.05,0.231,0.05,0.329c0,0.398-0.166,0.726-0.498,0.983c-0.33,0.256-0.762,0.383-1.293,0.383
		c-0.884,0-1.54-0.29-1.969-0.871s-0.645-1.472-0.645-2.675c0-0.34,0.041-1.244,0.123-2.71
		C185.153,85.02,185.214,83.814,185.256,82.872z"/>
	<path d="M196.135,91.215c0,0.45-0.172,0.829-0.519,1.14c-0.347,0.31-0.775,0.464-1.287,0.464c-0.456,0-0.832-0.141-1.13-0.422
		c-0.297-0.282-0.445-0.651-0.445-1.108c0-0.49,0.164-0.888,0.493-1.194c0.33-0.306,0.76-0.459,1.289-0.459
		c0.497,0,0.886,0.141,1.171,0.422C195.993,90.34,196.135,90.726,196.135,91.215z"/>
	<path d="M208.057,92.055c-0.394,0.219-0.765,0.382-1.116,0.488c-0.35,0.106-0.681,0.159-0.99,0.159
		c-0.418,0-0.709-0.116-0.876-0.349c-0.167-0.231-0.251-0.666-0.251-1.3c0-0.416,0.046-1.681,0.138-3.794
		c0.093-2.113,0.138-4.017,0.138-5.711c0-0.431-0.014-1.344-0.039-2.737c-0.009-0.676-0.014-1.209-0.014-1.6h-0.941
		c-1.194,0-2.157,0.054-2.892,0.161c-0.735,0.107-1.303,0.276-1.699,0.507c-0.188-0.362-0.326-0.673-0.414-0.934
		c-0.09-0.259-0.135-0.489-0.135-0.686c0-0.371,0.127-0.634,0.379-0.787s0.691-0.229,1.318-0.229c0.325,0,1.258,0.04,2.797,0.118
		c1.538,0.079,2.917,0.118,4.138,0.118c1.474,0,2.646-0.057,3.521-0.167c0.875-0.113,1.541-0.292,1.997-0.541
		c0.163,0.26,0.283,0.499,0.359,0.712c0.079,0.216,0.117,0.417,0.117,0.604c0,0.438-0.163,0.762-0.489,0.969
		c-0.325,0.207-0.83,0.31-1.515,0.31c-0.253,0-0.865-0.022-1.833-0.065c-0.971-0.043-1.745-0.075-2.322-0.092
		c-0.057,1.427-0.102,2.77-0.128,4.029c-0.029,1.26-0.043,2.419-0.043,3.479c0,2.03,0.062,3.625,0.188,4.782
		C207.578,90.657,207.779,91.508,208.057,92.055z"/>
	<path d="M218.348,92.138c-0.312,0.179-0.614,0.311-0.901,0.396c-0.29,0.086-0.575,0.128-0.855,0.128c-0.368,0-0.622-0.1-0.758-0.3
		c-0.137-0.199-0.205-0.624-0.205-1.276c0-0.155,0.053-1.356,0.157-3.606c0.105-2.249,0.157-4.416,0.157-6.502
		c0-2.004-0.044-3.36-0.133-4.069s-0.241-1.271-0.457-1.687c0.354-0.188,0.67-0.323,0.947-0.404
		c0.276-0.081,0.537-0.123,0.777-0.123c0.369,0,0.627,0.113,0.772,0.336c0.145,0.226,0.216,0.656,0.216,1.292
		c0,0.091-0.032,0.725-0.099,1.907c-0.066,1.18-0.11,2.334-0.134,3.461c0.643-0.441,1.276-0.772,1.899-0.999
		c0.623-0.224,1.232-0.337,1.827-0.337c1.36,0,2.421,0.421,3.183,1.263c0.762,0.843,1.143,2.018,1.143,3.522
		c0,0.285-0.012,0.772-0.037,1.458c-0.024,0.688-0.036,1.236-0.036,1.643c0,1.1,0.048,1.928,0.142,2.485
		c0.095,0.558,0.258,1.019,0.487,1.385c-0.375,0.188-0.705,0.326-0.99,0.416s-0.538,0.134-0.759,0.134
		c-0.383,0-0.647-0.096-0.79-0.288c-0.143-0.19-0.214-0.57-0.214-1.14c0-0.374,0.027-1.074,0.079-2.099
		c0.053-1.024,0.078-1.868,0.078-2.526c0-1.651-0.203-2.825-0.611-3.521s-1.09-1.043-2.045-1.043c-0.515,0-1.03,0.093-1.549,0.28
		c-0.519,0.188-1.121,0.501-1.807,0.94c-0.03,0.651-0.053,1.326-0.065,2.026c-0.011,0.699-0.017,1.416-0.017,2.148
		c0,1.349,0.047,2.363,0.138,3.037C217.98,91.153,218.133,91.706,218.348,92.138z"/>
	<path d="M238.986,92.041c-0.319,0.204-0.608,0.357-0.869,0.463c-0.262,0.105-0.49,0.158-0.685,0.158
		c-0.351,0-0.606-0.108-0.764-0.323c-0.16-0.215-0.251-0.562-0.275-1.043c-0.609,0.516-1.213,0.899-1.81,1.149
		c-0.598,0.25-1.204,0.375-1.821,0.375c-1.218,0-2.2-0.341-2.947-1.026s-1.121-1.584-1.121-2.699c0-1.262,0.514-2.273,1.541-3.035
		s2.409-1.143,4.148-1.143c0.282,0,0.586,0.01,0.906,0.031c0.321,0.021,0.664,0.05,1.03,0.091c0.016-0.072,0.026-0.148,0.03-0.226
		c0.004-0.077,0.006-0.169,0.006-0.276c0-0.848-0.236-1.496-0.71-1.94c-0.475-0.444-1.16-0.667-2.057-0.667
		c-0.745,0-1.359,0.125-1.841,0.374c-0.481,0.25-0.871,0.637-1.17,1.16c-0.297-0.074-0.521-0.201-0.673-0.381
		c-0.152-0.179-0.229-0.413-0.229-0.7c0-0.597,0.376-1.091,1.127-1.48c0.75-0.39,1.73-0.583,2.941-0.583
		c1.485,0,2.601,0.361,3.343,1.083c0.743,0.724,1.116,1.804,1.116,3.241c0,0.269-0.013,0.74-0.037,1.408
		c-0.024,0.671-0.037,1.209-0.037,1.617c0,1.128,0.066,2.035,0.202,2.72C238.466,91.072,238.683,91.624,238.986,92.041z
		 M236.294,86.583c-0.372-0.057-0.705-0.101-1-0.129c-0.296-0.028-0.548-0.043-0.759-0.043c-1.254,0-2.199,0.211-2.839,0.633
		c-0.639,0.421-0.958,1.05-0.958,1.885c0,0.672,0.223,1.2,0.667,1.584c0.445,0.386,1.06,0.577,1.845,0.577
		c0.59,0,1.143-0.113,1.656-0.336c0.514-0.226,0.984-0.563,1.413-1.015c-0.018-0.408-0.027-0.742-0.031-1
		c-0.004-0.258-0.006-0.506-0.006-0.742c0-0.147,0.004-0.378,0.012-0.694C236.302,86.986,236.302,86.747,236.294,86.583z"/>
	<path d="M250.934,81.061v-1.084c0-1.253-0.049-2.254-0.143-3.004c-0.097-0.75-0.244-1.333-0.442-1.751
		c0.324-0.18,0.629-0.313,0.911-0.399c0.285-0.086,0.536-0.129,0.755-0.129c0.39,0,0.661,0.102,0.815,0.306
		c0.153,0.204,0.231,0.584,0.231,1.137c0,0.352-0.053,1.558-0.157,3.62c-0.106,2.063-0.157,3.954-0.157,5.674
		c0,2.087,0.059,3.604,0.178,4.548c0.119,0.946,0.32,1.66,0.608,2.141c-0.361,0.186-0.69,0.322-0.985,0.41
		c-0.296,0.089-0.568,0.133-0.813,0.133c-0.328,0-0.561-0.092-0.695-0.278c-0.136-0.186-0.204-0.503-0.204-0.956
		c0-0.152,0.005-0.271,0.012-0.356c0.008-0.085,0.013-0.164,0.013-0.236c-0.635,0.682-1.296,1.182-1.983,1.502
		c-0.688,0.321-1.452,0.48-2.29,0.48c-1.619,0-2.944-0.537-3.974-1.611c-1.029-1.074-1.543-2.461-1.543-4.162
		c0-1.92,0.634-3.509,1.901-4.766c1.269-1.257,2.873-1.886,4.816-1.886c0.473,0,0.969,0.056,1.494,0.167
		C249.805,80.672,250.356,80.838,250.934,81.061z M250.801,89.068c0.015-0.796,0.029-1.648,0.041-2.555
		c0.012-0.905,0.018-1.416,0.018-1.528c0-0.619-0.003-1.078-0.006-1.378c-0.004-0.3-0.014-0.58-0.029-0.841
		c-0.579-0.243-1.118-0.425-1.619-0.543s-0.976-0.177-1.422-0.177c-1.426,0-2.554,0.445-3.385,1.334
		c-0.83,0.891-1.245,2.1-1.245,3.627c0,1.268,0.341,2.272,1.025,3.011c0.685,0.74,1.608,1.11,2.773,1.11
		c0.757,0,1.45-0.168,2.076-0.506C249.656,90.286,250.246,89.768,250.801,89.068z"/>
	<path d="M265.415,81.061v-1.084c0-1.253-0.049-2.254-0.144-3.004c-0.096-0.75-0.242-1.333-0.44-1.751
		c0.324-0.18,0.627-0.313,0.911-0.399s0.536-0.129,0.755-0.129c0.388,0,0.661,0.102,0.814,0.306
		c0.153,0.204,0.232,0.584,0.232,1.137c0,0.352-0.055,1.558-0.157,3.62c-0.106,2.063-0.157,3.954-0.157,5.674
		c0,2.087,0.059,3.604,0.177,4.548c0.119,0.946,0.321,1.66,0.609,2.141c-0.361,0.186-0.69,0.322-0.985,0.41
		c-0.298,0.089-0.568,0.133-0.813,0.133c-0.329,0-0.561-0.092-0.695-0.278c-0.137-0.186-0.204-0.503-0.204-0.956
		c0-0.152,0.004-0.271,0.012-0.356s0.013-0.164,0.013-0.236c-0.637,0.682-1.298,1.182-1.984,1.502
		c-0.688,0.321-1.451,0.48-2.289,0.48c-1.619,0-2.944-0.537-3.974-1.611c-1.029-1.074-1.543-2.461-1.543-4.162
		c0-1.92,0.634-3.509,1.901-4.766c1.269-1.257,2.873-1.886,4.817-1.886c0.47,0,0.968,0.056,1.492,0.167
		C264.287,80.672,264.837,80.838,265.415,81.061z M265.281,89.068c0.017-0.796,0.03-1.648,0.042-2.555
		c0.011-0.905,0.019-1.416,0.019-1.528c0-0.619-0.003-1.078-0.008-1.378c-0.002-0.3-0.012-0.58-0.029-0.841
		c-0.577-0.243-1.118-0.425-1.618-0.543s-0.975-0.177-1.423-0.177c-1.425,0-2.552,0.445-3.383,1.334
		c-0.83,0.891-1.245,2.1-1.245,3.627c0,1.268,0.341,2.272,1.024,3.011c0.685,0.74,1.609,1.11,2.774,1.11
		c0.757,0,1.448-0.168,2.076-0.506C264.137,90.286,264.727,89.768,265.281,89.068z"/>
	<path d="M280.4,92.041c-0.316,0.204-0.606,0.357-0.867,0.463c-0.261,0.105-0.489,0.158-0.686,0.158
		c-0.351,0-0.604-0.108-0.765-0.323c-0.158-0.215-0.25-0.562-0.274-1.043c-0.61,0.516-1.212,0.899-1.81,1.149
		c-0.597,0.25-1.203,0.375-1.82,0.375c-1.219,0-2.201-0.341-2.947-1.026c-0.748-0.685-1.121-1.584-1.121-2.699
		c0-1.262,0.514-2.273,1.541-3.035s2.409-1.143,4.146-1.143c0.285,0,0.588,0.01,0.908,0.031s0.665,0.05,1.029,0.091
		c0.017-0.072,0.026-0.148,0.031-0.226c0.004-0.077,0.006-0.169,0.006-0.276c0-0.848-0.237-1.496-0.71-1.94
		c-0.474-0.444-1.159-0.667-2.059-0.667c-0.744,0-1.356,0.125-1.838,0.374c-0.481,0.25-0.872,0.637-1.172,1.16
		c-0.295-0.074-0.52-0.201-0.672-0.381c-0.152-0.179-0.229-0.413-0.229-0.7c0-0.597,0.374-1.091,1.126-1.48
		c0.751-0.39,1.731-0.583,2.941-0.583c1.487,0,2.601,0.361,3.345,1.083c0.742,0.724,1.113,1.804,1.113,3.241
		c0,0.269-0.012,0.74-0.037,1.408c-0.024,0.671-0.035,1.209-0.035,1.617c0,1.128,0.067,2.035,0.201,2.72S280.1,91.624,280.4,92.041z
		 M274.67,77.049c0,0.399-0.144,0.729-0.431,0.989c-0.289,0.261-0.651,0.391-1.089,0.391c-0.405,0-0.732-0.118-0.979-0.354
		s-0.371-0.545-0.371-0.929c0-0.398,0.142-0.729,0.427-0.994c0.282-0.264,0.639-0.397,1.068-0.397c0.406,0,0.736,0.12,0.992,0.36
		S274.67,76.667,274.67,77.049z M277.71,86.583c-0.372-0.057-0.706-0.101-1.001-0.129s-0.548-0.043-0.757-0.043
		c-1.255,0-2.201,0.211-2.84,0.633s-0.958,1.05-0.958,1.885c0,0.672,0.222,1.2,0.667,1.584c0.444,0.386,1.059,0.577,1.844,0.577
		c0.59,0,1.142-0.113,1.655-0.336c0.514-0.226,0.985-0.563,1.414-1.015c-0.016-0.408-0.026-0.742-0.03-1
		c-0.005-0.258-0.006-0.506-0.006-0.742c0-0.147,0.003-0.378,0.012-0.694C277.719,86.986,277.719,86.747,277.71,86.583z
		 M278.877,77.049c0,0.399-0.144,0.729-0.429,0.989c-0.287,0.261-0.654,0.391-1.104,0.391c-0.4,0-0.724-0.116-0.969-0.348
		c-0.246-0.232-0.368-0.544-0.368-0.935c0-0.398,0.14-0.729,0.417-0.994s0.618-0.397,1.019-0.397c0.425,0,0.771,0.12,1.036,0.36
		C278.744,76.355,278.877,76.667,278.877,77.049z"/>
	<path d="M291.259,90.884c-0.556,0.68-1.149,1.178-1.786,1.497c-0.638,0.318-1.356,0.478-2.155,0.478
		c-1.348,0-2.379-0.406-3.093-1.216c-0.714-0.811-1.071-1.983-1.071-3.516c0-0.326,0.021-0.928,0.061-1.802
		c0.041-0.877,0.062-1.593,0.062-2.146c0-0.742-0.044-1.364-0.131-1.865c-0.086-0.501-0.228-0.94-0.424-1.313
		c0.363-0.18,0.682-0.312,0.952-0.398c0.271-0.084,0.5-0.127,0.687-0.127c0.38,0,0.641,0.096,0.783,0.288
		c0.142,0.191,0.213,0.543,0.213,1.057c0,0.408-0.033,1.187-0.099,2.339c-0.065,1.152-0.099,2.101-0.099,2.841
		c0,1.557,0.188,2.634,0.564,3.232c0.376,0.599,1.024,0.898,1.948,0.898c0.678,0,1.304-0.162,1.88-0.489
		c0.576-0.324,1.138-0.838,1.687-1.54c0.031-0.521,0.054-1.069,0.071-1.643c0.015-0.575,0.022-1.204,0.022-1.889
		c0-1.107-0.054-2.033-0.16-2.78c-0.108-0.745-0.278-1.333-0.508-1.765c0.363-0.187,0.687-0.327,0.97-0.415
		c0.282-0.091,0.542-0.135,0.776-0.135c0.356,0,0.602,0.114,0.739,0.341c0.138,0.229,0.207,0.723,0.207,1.479
		c0,0.359-0.022,1.147-0.069,2.367c-0.044,1.217-0.067,2.258-0.067,3.122c0,1.205,0.052,2.137,0.155,2.792
		c0.103,0.656,0.273,1.167,0.513,1.534c-0.407,0.196-0.745,0.338-1.015,0.424c-0.269,0.086-0.5,0.129-0.696,0.129
		c-0.35,0-0.59-0.12-0.721-0.361C291.326,92.06,291.259,91.587,291.259,90.884z"/>
	<path d="M296.928,90.716c0.293,0.155,0.573,0.269,0.841,0.342c0.268,0.074,0.528,0.11,0.781,0.11c0.585,0,1.057-0.14,1.413-0.42
		c0.359-0.282,0.537-0.649,0.537-1.106c0-0.356-0.099-0.69-0.295-1c-0.196-0.309-0.563-0.684-1.104-1.123
		c-0.089-0.064-0.21-0.163-0.364-0.292c-1.367-1.143-2.05-2.155-2.05-3.038c0-0.359,0.068-0.717,0.207-1.076s0.343-0.703,0.612-1.03
		c0.514-0.612,1.114-1.079,1.804-1.4c0.689-0.322,1.433-0.484,2.233-0.484c0.391,0,0.688,0.076,0.893,0.229s0.306,0.373,0.306,0.661
		c0,0.14-0.037,0.306-0.11,0.499c-0.074,0.194-0.198,0.438-0.37,0.734c-0.221-0.091-0.43-0.16-0.627-0.206
		c-0.196-0.045-0.39-0.069-0.577-0.069c-0.681,0-1.231,0.165-1.654,0.495c-0.422,0.331-0.633,0.755-0.633,1.276
		c0,0.57,0.569,1.339,1.707,2.31c0.288,0.243,0.504,0.435,0.651,0.574c0.484,0.423,0.842,0.839,1.071,1.249
		c0.229,0.41,0.346,0.831,0.346,1.261c0,1.015-0.45,1.89-1.349,2.625c-0.899,0.734-1.991,1.102-3.276,1.102
		c-0.447,0-0.791-0.088-1.031-0.267s-0.359-0.429-0.359-0.753c0-0.152,0.03-0.323,0.094-0.509
		C296.685,91.222,296.788,90.991,296.928,90.716z"/>
	<g>
		<path d="M103.788,105.523h10.535v-0.959c0-1.548-0.06-2.787-0.18-3.716c-0.12-0.926-0.304-1.618-0.552-2.071
			c0.424-0.219,0.806-0.381,1.145-0.487c0.339-0.105,0.644-0.158,0.913-0.158c0.417,0,0.708,0.122,0.875,0.366
			c0.167,0.245,0.251,0.68,0.251,1.305c0,0.211-0.039,1.173-0.118,2.885c-0.079,1.712-0.118,3.316-0.118,4.813
			c0,2.268,0.061,3.974,0.181,5.116c0.121,1.143,0.323,1.978,0.605,2.507c-0.378,0.211-0.736,0.368-1.074,0.47
			s-0.663,0.152-0.977,0.152c-0.426,0-0.723-0.115-0.887-0.348c-0.165-0.232-0.247-0.659-0.247-1.278
			c0-0.039,0.024-0.817,0.073-2.332c0.048-1.515,0.077-3.013,0.084-4.496h-10.537v1.221c0,1.816,0.062,3.248,0.188,4.294
			c0.125,1.047,0.324,1.818,0.599,2.315c-0.396,0.204-0.767,0.358-1.11,0.464c-0.343,0.105-0.655,0.158-0.936,0.158
			c-0.456,0-0.766-0.118-0.931-0.354c-0.165-0.236-0.248-0.699-0.248-1.391c0-0.333,0.045-1.434,0.138-3.299
			c0.092-1.868,0.138-3.566,0.138-5.094c0-1.919-0.062-3.41-0.184-4.471c-0.123-1.062-0.324-1.85-0.602-2.36
			c0.403-0.211,0.773-0.371,1.11-0.482c0.337-0.108,0.642-0.163,0.914-0.163c0.428,0,0.728,0.122,0.901,0.365
			c0.173,0.243,0.259,0.668,0.259,1.276c0,0.122-0.029,0.817-0.085,2.085S103.813,104.348,103.788,105.523z"/>
		<path d="M123.742,115.197c-0.345,0.187-0.667,0.324-0.966,0.415c-0.299,0.088-0.58,0.134-0.842,0.134
			c-0.393,0-0.664-0.112-0.812-0.335s-0.221-0.646-0.221-1.265c0-0.774,0.045-2.248,0.138-4.418
			c0.092-2.172,0.138-3.964,0.138-5.374c0-1.743-0.054-3.065-0.162-3.966c-0.107-0.901-0.289-1.586-0.546-2.061
			c0.328-0.187,0.644-0.325,0.948-0.416c0.304-0.088,0.591-0.134,0.863-0.134c0.41,0,0.689,0.102,0.837,0.306
			c0.147,0.204,0.222,0.62,0.222,1.246c0,0.522-0.046,1.891-0.138,4.107c-0.092,2.217-0.138,4.169-0.138,5.855
			c0,1.81,0.051,3.131,0.154,3.961C123.321,114.083,123.495,114.732,123.742,115.197z"/>
		<path d="M129.165,111.11c-0.793-0.399-1.39-0.895-1.787-1.484c-0.396-0.59-0.595-1.271-0.595-2.044
			c0-1.246,0.451-2.274,1.354-3.084c0.902-0.81,2.063-1.215,3.485-1.215c0.408,0,0.824,0.061,1.249,0.182
			c0.425,0.122,0.861,0.298,1.311,0.533c0.913-0.244,1.59-0.463,2.03-0.663c0.44-0.199,0.722-0.4,0.845-0.603
			c0.157,0.171,0.273,0.349,0.349,0.535c0.075,0.187,0.112,0.381,0.112,0.584c0,0.413-0.155,0.732-0.466,0.955
			c-0.311,0.222-0.841,0.387-1.59,0.493c0.287,0.366,0.499,0.733,0.634,1.101c0.135,0.368,0.203,0.751,0.203,1.15
			c0,1.134-0.439,2.083-1.318,2.846c-0.878,0.763-1.98,1.144-3.305,1.144c-0.163,0-0.335-0.006-0.519-0.018
			c-0.183-0.013-0.368-0.031-0.555-0.056c-0.155,0.155-0.273,0.307-0.354,0.457c-0.082,0.15-0.122,0.299-0.122,0.444
			c0,0.56,0.781,1.011,2.346,1.352c0.366,0.081,0.651,0.143,0.855,0.183c1.533,0.357,2.57,0.77,3.108,1.24
			c0.538,0.467,0.808,1.133,0.808,1.995c0,1.236-0.557,2.258-1.668,3.064c-1.112,0.805-2.544,1.208-4.296,1.208
			c-1.63,0-2.917-0.335-3.862-1.006c-0.946-0.673-1.418-1.578-1.418-2.718c0-0.796,0.233-1.499,0.7-2.105
			c0.466-0.605,1.154-1.104,2.062-1.495c-0.196-0.18-0.345-0.361-0.447-0.548c-0.102-0.187-0.153-0.387-0.153-0.598
			c0-0.268,0.083-0.552,0.251-0.853C128.579,111.783,128.83,111.459,129.165,111.11z M129.978,114.959h0.024
			c-0.68,0.268-1.19,0.598-1.53,0.993c-0.34,0.395-0.51,0.842-0.51,1.346c0,0.747,0.331,1.35,0.993,1.81
			c0.662,0.458,1.545,0.688,2.649,0.688c1.07,0,1.937-0.205,2.599-0.615c0.662-0.411,0.993-0.937,0.993-1.578
			c0-0.966-1.662-1.831-4.986-2.595C130.104,114.984,130.027,114.968,129.978,114.959z M131.574,110.005
			c0.832,0,1.519-0.242,2.062-0.728c0.542-0.485,0.814-1.095,0.814-1.828c0-0.766-0.259-1.384-0.777-1.852
			c-0.519-0.47-1.202-0.704-2.05-0.704c-0.874,0-1.577,0.229-2.111,0.691c-0.535,0.46-0.802,1.065-0.802,1.815
			c0,0.758,0.267,1.382,0.802,1.872C130.046,109.761,130.733,110.005,131.574,110.005z"/>
		<path d="M139.695,113.801c0.293,0.155,0.573,0.268,0.842,0.341c0.268,0.074,0.528,0.109,0.779,0.109
			c0.585,0,1.058-0.14,1.415-0.421c0.357-0.28,0.536-0.648,0.536-1.103c0-0.359-0.099-0.692-0.295-1
			c-0.196-0.31-0.564-0.683-1.104-1.123c-0.089-0.066-0.21-0.163-0.364-0.295c-1.367-1.143-2.051-2.154-2.051-3.035
			c0-0.359,0.069-0.719,0.208-1.079c0.139-0.359,0.343-0.701,0.612-1.027c0.514-0.612,1.114-1.08,1.804-1.403
			c0.689-0.322,1.433-0.483,2.232-0.483c0.392,0,0.689,0.076,0.893,0.229c0.204,0.152,0.307,0.373,0.307,0.66
			c0,0.14-0.037,0.307-0.11,0.501c-0.074,0.193-0.197,0.438-0.37,0.733c-0.221-0.092-0.431-0.161-0.627-0.206
			s-0.39-0.069-0.577-0.069c-0.681,0-1.232,0.166-1.654,0.495s-0.633,0.756-0.633,1.276c0,0.57,0.569,1.341,1.708,2.309
			c0.286,0.246,0.503,0.438,0.65,0.575c0.484,0.423,0.842,0.838,1.071,1.249s0.345,0.831,0.345,1.261
			c0,1.015-0.449,1.89-1.348,2.625c-0.899,0.735-1.991,1.102-3.276,1.102c-0.447,0-0.792-0.09-1.031-0.267
			c-0.24-0.178-0.36-0.429-0.36-0.752c0-0.155,0.031-0.324,0.095-0.511C139.453,114.307,139.554,114.076,139.695,113.801z"/>
		<path d="M149.08,105.956c-0.139,0-0.331,0.006-0.576,0.02s-0.404,0.02-0.478,0.02c-0.334,0-0.569-0.046-0.703-0.141
			c-0.136-0.093-0.202-0.253-0.202-0.481c0-0.106,0.018-0.231,0.054-0.374c0.037-0.143,0.097-0.302,0.178-0.482
			c0.065,0,0.176,0.004,0.331,0.012c0.155,0.007,0.278,0.011,0.368,0.011c0.212,0,0.552-0.011,1.017-0.036
			c0.057,0,0.102-0.005,0.135-0.012c0-0.091,0.004-0.224,0.013-0.403c0.008-0.179,0.012-0.31,0.012-0.392
			c0-0.635-0.041-1.196-0.123-1.68c-0.082-0.484-0.21-0.909-0.382-1.277c0.351-0.17,0.664-0.301,0.942-0.392
			c0.276-0.089,0.514-0.134,0.709-0.134c0.334,0,0.576,0.104,0.727,0.312c0.151,0.208,0.228,0.548,0.228,1.02
			c0,0.204-0.036,0.844-0.107,1.918c-0.023,0.401-0.044,0.718-0.06,0.954c0.476-0.064,0.904-0.113,1.286-0.145
			c0.381-0.032,0.724-0.048,1.027-0.048c0.27,0,0.465,0.049,0.584,0.146s0.179,0.256,0.179,0.475c0,0.122-0.037,0.274-0.111,0.457
			c-0.074,0.182-0.182,0.386-0.32,0.613c-0.214-0.053-0.439-0.092-0.676-0.118c-0.237-0.026-0.523-0.04-0.859-0.04
			c-0.058,0-0.229,0.006-0.516,0.02c-0.286,0.013-0.531,0.023-0.736,0.033c-0.071,1.27-0.123,2.315-0.154,3.138
			c-0.032,0.821-0.048,1.493-0.048,2.014c0,1.131,0.1,1.923,0.3,2.375c0.198,0.452,0.534,0.677,1.007,0.677
			c0.131,0,0.267-0.026,0.409-0.075c0.143-0.052,0.287-0.13,0.434-0.24c0.074,0.164,0.128,0.306,0.161,0.426
			c0.032,0.123,0.049,0.233,0.049,0.33c0,0.4-0.166,0.727-0.497,0.983c-0.331,0.257-0.763,0.384-1.294,0.384
			c-0.884,0-1.54-0.29-1.969-0.871c-0.43-0.58-0.644-1.472-0.644-2.673c0-0.342,0.04-1.246,0.122-2.711
			C148.977,108.102,149.039,106.898,149.08,105.956z"/>
		<path d="M159.959,114.298c0,0.45-0.173,0.83-0.52,1.139c-0.346,0.31-0.775,0.465-1.287,0.465c-0.456,0-0.832-0.141-1.129-0.422
			c-0.298-0.281-0.446-0.651-0.446-1.108c0-0.49,0.165-0.888,0.494-1.194c0.329-0.306,0.759-0.459,1.288-0.459
			c0.497,0,0.887,0.141,1.172,0.423C159.817,113.422,159.959,113.808,159.959,114.298z"/>
		<path d="M167.045,98.2c1.115-0.016,2.233-0.045,3.354-0.086c1.119-0.041,1.691-0.061,1.716-0.061c3.186,0,5.72,0.755,7.606,2.267
			c1.886,1.511,2.828,3.526,2.828,6.045c0,1.349-0.279,2.625-0.837,3.822c-0.558,1.198-1.363,2.245-2.413,3.14
			c-0.971,0.828-2.105,1.452-3.404,1.87c-1.299,0.419-2.751,0.627-4.356,0.627c-1.639,0-2.715-0.129-3.233-0.389
			c-0.517-0.261-0.775-0.759-0.775-1.499c0-0.057,0.039-1.02,0.118-2.89c0.078-1.868,0.117-3.713,0.117-5.533
			c0-1.975-0.06-3.536-0.178-4.687C167.47,99.677,167.29,98.801,167.045,98.2z M170.087,100.189
			c-0.057,1.722-0.097,3.266-0.121,4.634c-0.024,1.367-0.037,2.559-0.037,3.574c0,0.893,0.01,1.764,0.03,2.612
			c0.02,0.849,0.055,1.675,0.104,2.478c0.384,0.097,0.77,0.171,1.156,0.22c0.387,0.049,0.776,0.072,1.169,0.072
			c2.273,0,4.11-0.633,5.509-1.899c1.398-1.267,2.098-2.927,2.098-4.981c0-2.038-0.694-3.694-2.08-4.969
			c-1.386-1.274-3.188-1.912-5.404-1.912c-0.449,0-0.873,0.015-1.272,0.043S170.455,100.133,170.087,100.189z"/>
		<path d="M187.299,106.135c0.609-0.854,1.191-1.49,1.745-1.911c0.553-0.417,1.098-0.628,1.634-0.628
			c0.457,0,0.846,0.145,1.166,0.434c0.32,0.29,0.482,0.646,0.482,1.07c0,0.278-0.092,0.549-0.274,0.813
			c-0.184,0.266-0.459,0.528-0.825,0.789c-0.13-0.363-0.291-0.629-0.482-0.802c-0.19-0.172-0.42-0.259-0.688-0.259
			c-0.399,0-0.818,0.198-1.258,0.596c-0.438,0.396-0.87,0.966-1.293,1.71c-0.04,0.366-0.073,0.738-0.097,1.117
			c-0.024,0.378-0.036,0.746-0.036,1.104c0,1.22,0.066,2.238,0.199,3.051c0.134,0.814,0.342,1.48,0.627,2.001
			c-0.329,0.171-0.65,0.301-0.966,0.391c-0.314,0.09-0.624,0.134-0.927,0.134c-0.402,0-0.678-0.1-0.83-0.298
			c-0.151-0.199-0.227-0.601-0.227-1.204c0-0.219,0.045-1.064,0.138-2.534c0.091-1.47,0.138-2.834,0.138-4.097
			c0-1.033-0.04-1.827-0.12-2.381c-0.079-0.553-0.209-1.042-0.391-1.465c0.162-0.057,0.321-0.101,0.479-0.128
			c0.159-0.029,0.322-0.043,0.494-0.043c0.47,0,0.818,0.112,1.045,0.335s0.341,0.568,0.341,1.032c0,0.106-0.007,0.25-0.02,0.433
			C187.341,105.58,187.324,105.827,187.299,106.135z"/>
		<path d="M202.724,113.147c0.175,0.219,0.304,0.425,0.388,0.617c0.083,0.192,0.125,0.377,0.125,0.557
			c0,0.441-0.327,0.801-0.979,1.083c-0.653,0.281-1.509,0.421-2.562,0.421c-1.94,0-3.461-0.531-4.559-1.592
			c-1.102-1.062-1.65-2.529-1.65-4.4c0-1.887,0.554-3.431,1.665-4.632c1.109-1.199,2.534-1.8,4.274-1.8
			c1.341,0,2.442,0.383,3.304,1.149c0.863,0.765,1.294,1.742,1.294,2.932c0,0.938-0.357,1.606-1.072,2.005
			c-0.716,0.399-1.931,0.599-3.645,0.599c-0.642,0-1.283-0.022-1.919-0.068c-0.64-0.044-1.271-0.112-1.896-0.201v0.172
			c0,1.263,0.373,2.265,1.119,3.002c0.747,0.737,1.763,1.105,3.045,1.105c0.603,0,1.157-0.079,1.669-0.237
			C201.834,113.7,202.301,113.461,202.724,113.147z M195.637,108.36c0.537,0.091,1.128,0.157,1.775,0.202
			c0.647,0.045,1.346,0.068,2.094,0.068c1.017,0,1.697-0.094,2.038-0.28c0.342-0.187,0.513-0.525,0.513-1.014
			c0-0.74-0.257-1.325-0.77-1.755c-0.512-0.432-1.212-0.647-2.1-0.647c-0.943,0-1.728,0.301-2.354,0.903
			C196.208,106.438,195.808,107.279,195.637,108.36z"/>
		<path d="M209.603,115.197c-0.347,0.187-0.676,0.325-0.989,0.415s-0.613,0.134-0.902,0.134c-0.404,0-0.678-0.107-0.822-0.323
			c-0.145-0.216-0.216-0.649-0.216-1.3c0-0.376,0.039-1.214,0.118-2.516c0.078-1.303,0.118-2.422,0.118-3.358
			c0-1.017-0.05-1.843-0.147-2.478s-0.256-1.177-0.475-1.625c0.3-0.179,0.61-0.314,0.93-0.408c0.32-0.093,0.636-0.142,0.947-0.142
			c0.379,0,0.637,0.092,0.777,0.274c0.139,0.184,0.209,0.523,0.209,1.02c0,0.13-0.04,0.843-0.118,2.138
			c-0.079,1.293-0.118,2.523-0.118,3.687c0,1.091,0.057,1.994,0.168,2.71C209.195,114.142,209.37,114.732,209.603,115.197z
			 M209.504,99.897c0,0.462-0.165,0.846-0.491,1.155c-0.328,0.307-0.742,0.461-1.241,0.461c-0.436,0-0.779-0.122-1.032-0.365
			c-0.254-0.242-0.381-0.57-0.381-0.983c0-0.455,0.163-0.84,0.491-1.16c0.327-0.32,0.726-0.48,1.192-0.48
			c0.425,0,0.776,0.129,1.05,0.389C209.367,99.172,209.504,99.5,209.504,99.897z"/>
		<path d="M213.564,105.733c-0.179,0-0.384,0.005-0.618,0.013c-0.234,0.01-0.385,0.013-0.448,0.013c-0.227,0-0.4-0.06-0.521-0.182
			s-0.182-0.292-0.182-0.509c0-0.122,0.02-0.247,0.062-0.375c0.039-0.13,0.097-0.256,0.171-0.376c0.081,0,0.186,0.005,0.312,0.012
			c0.126,0.01,0.213,0.013,0.263,0.013h0.938v-0.285c0-2.002,0.376-3.537,1.128-4.603c0.749-1.066,1.828-1.6,3.233-1.6
			c0.561,0,1.013,0.115,1.356,0.347c0.347,0.231,0.519,0.528,0.519,0.892c0,0.252-0.092,0.483-0.275,0.692
			c-0.184,0.211-0.443,0.393-0.778,0.547c-0.188-0.219-0.389-0.385-0.6-0.498c-0.212-0.113-0.433-0.171-0.66-0.171
			c-0.652,0-1.127,0.328-1.424,0.985c-0.298,0.657-0.447,1.707-0.447,3.152v0.41c0.286-0.034,0.612-0.062,0.98-0.079
			c0.366-0.017,0.749-0.026,1.15-0.026c0.26,0,0.459,0.063,0.595,0.19c0.134,0.125,0.201,0.32,0.201,0.58
			c0,0.091-0.019,0.199-0.056,0.324c-0.036,0.128-0.116,0.33-0.239,0.606c-0.188-0.078-0.43-0.131-0.728-0.161
			c-0.297-0.029-0.757-0.045-1.376-0.045c-0.147,0-0.26,0.002-0.337,0.006c-0.077,0.005-0.148,0.012-0.214,0.02
			c0,1.771,0.026,3.593,0.079,5.47c0.052,1.875,0.078,2.867,0.078,2.972c0,0.661-0.073,1.104-0.219,1.333
			c-0.145,0.229-0.402,0.343-0.773,0.343c-0.258,0-0.536-0.048-0.835-0.146c-0.298-0.098-0.633-0.248-1.004-0.452
			c0.247-0.482,0.428-1.199,0.544-2.153c0.115-0.954,0.174-2.224,0.174-3.814c0-0.58-0.017-1.583-0.049-3.008
			C213.564,105.977,213.564,105.832,213.564,105.733z"/>
		<path d="M230.193,115.124c-0.319,0.203-0.608,0.357-0.868,0.463c-0.262,0.105-0.49,0.158-0.685,0.158
			c-0.352,0-0.607-0.107-0.765-0.323c-0.159-0.215-0.25-0.563-0.275-1.042c-0.609,0.516-1.212,0.898-1.81,1.147
			c-0.597,0.25-1.204,0.375-1.82,0.375c-1.218,0-2.201-0.341-2.948-1.026c-0.747-0.683-1.12-1.583-1.12-2.699
			c0-1.262,0.514-2.274,1.54-3.036c1.027-0.761,2.41-1.142,4.148-1.142c0.283,0,0.586,0.011,0.907,0.031
			c0.32,0.02,0.663,0.05,1.029,0.091c0.016-0.074,0.027-0.148,0.03-0.226c0.004-0.077,0.007-0.169,0.007-0.275
			c0-0.851-0.237-1.497-0.71-1.941c-0.475-0.445-1.16-0.667-2.058-0.667c-0.744,0-1.358,0.124-1.84,0.375
			c-0.482,0.248-0.872,0.635-1.17,1.159c-0.298-0.074-0.521-0.2-0.674-0.381s-0.229-0.414-0.229-0.701
			c0-0.598,0.376-1.091,1.127-1.48c0.751-0.388,1.731-0.583,2.941-0.583c1.485,0,2.602,0.362,3.344,1.085
			c0.743,0.722,1.115,1.802,1.115,3.239c0,0.271-0.013,0.74-0.037,1.411c-0.024,0.668-0.036,1.209-0.036,1.617
			c0,1.127,0.066,2.034,0.201,2.719C229.673,114.157,229.891,114.708,230.193,115.124z M227.502,109.666
			c-0.372-0.058-0.705-0.1-1-0.129c-0.297-0.028-0.549-0.043-0.76-0.043c-1.253,0-2.199,0.211-2.838,0.633
			c-0.64,0.421-0.959,1.049-0.959,1.885c0,0.671,0.223,1.199,0.668,1.585c0.444,0.383,1.059,0.576,1.844,0.576
			c0.59,0,1.143-0.112,1.656-0.338c0.514-0.224,0.984-0.562,1.413-1.012c-0.018-0.411-0.027-0.744-0.03-1.001
			c-0.004-0.258-0.007-0.505-0.007-0.743c0-0.147,0.004-0.378,0.013-0.693C227.509,110.07,227.509,109.83,227.502,109.666z"/>
		<path d="M236.14,115.197c-0.344,0.187-0.666,0.324-0.966,0.415c-0.3,0.088-0.58,0.134-0.843,0.134
			c-0.394,0-0.664-0.112-0.812-0.335s-0.221-0.646-0.221-1.265c0-0.774,0.045-2.248,0.138-4.418
			c0.091-2.172,0.138-3.964,0.138-5.374c0-1.743-0.055-3.065-0.162-3.966c-0.107-0.901-0.289-1.586-0.546-2.061
			c0.328-0.187,0.644-0.325,0.948-0.416c0.304-0.088,0.592-0.134,0.863-0.134c0.41,0,0.689,0.102,0.838,0.306
			c0.147,0.204,0.221,0.62,0.221,1.246c0,0.522-0.047,1.891-0.138,4.107c-0.092,2.217-0.138,4.169-0.138,5.855
			c0,1.81,0.052,3.131,0.155,3.961C235.718,114.083,235.893,114.732,236.14,115.197z"/>
		<path d="M240.354,105.956c-0.14,0-0.331,0.006-0.576,0.02c-0.244,0.014-0.404,0.02-0.478,0.02c-0.334,0-0.569-0.046-0.703-0.141
			c-0.135-0.093-0.202-0.253-0.202-0.481c0-0.106,0.019-0.231,0.055-0.374c0.037-0.143,0.096-0.302,0.177-0.482
			c0.065,0,0.176,0.004,0.332,0.012c0.155,0.007,0.278,0.011,0.366,0.011c0.214,0,0.553-0.011,1.018-0.036
			c0.057,0,0.102-0.005,0.135-0.012c0-0.091,0.004-0.224,0.013-0.403c0.007-0.179,0.012-0.31,0.012-0.392
			c0-0.635-0.041-1.196-0.122-1.68c-0.084-0.484-0.211-0.909-0.383-1.277c0.351-0.17,0.665-0.301,0.942-0.392
			c0.276-0.089,0.514-0.134,0.708-0.134c0.334,0,0.577,0.104,0.728,0.312c0.152,0.208,0.228,0.548,0.228,1.02
			c0,0.204-0.036,0.844-0.107,1.918c-0.024,0.401-0.044,0.718-0.059,0.954c0.475-0.064,0.904-0.113,1.285-0.145
			s0.724-0.048,1.027-0.048c0.271,0,0.464,0.049,0.585,0.146c0.117,0.097,0.178,0.256,0.178,0.475c0,0.122-0.038,0.274-0.111,0.457
			c-0.074,0.182-0.181,0.386-0.32,0.613c-0.213-0.053-0.439-0.092-0.676-0.118c-0.238-0.026-0.522-0.04-0.859-0.04
			c-0.057,0-0.229,0.006-0.515,0.02c-0.287,0.013-0.532,0.023-0.736,0.033c-0.071,1.27-0.123,2.315-0.155,3.138
			c-0.031,0.821-0.048,1.493-0.048,2.014c0,1.131,0.1,1.923,0.299,2.375s0.536,0.677,1.008,0.677c0.13,0,0.268-0.026,0.41-0.075
			c0.143-0.052,0.286-0.13,0.433-0.24c0.073,0.164,0.128,0.306,0.161,0.426c0.033,0.123,0.049,0.233,0.049,0.33
			c0,0.4-0.166,0.727-0.498,0.983c-0.33,0.257-0.762,0.384-1.292,0.384c-0.885,0-1.541-0.29-1.97-0.871
			c-0.429-0.58-0.644-1.472-0.644-2.673c0-0.342,0.04-1.246,0.122-2.711C240.251,108.102,240.313,106.898,240.354,105.956z"/>
		<path d="M250.86,115.197c-0.347,0.187-0.676,0.325-0.988,0.415c-0.314,0.09-0.614,0.134-0.901,0.134
			c-0.405,0-0.679-0.107-0.823-0.323c-0.144-0.216-0.217-0.649-0.217-1.3c0-0.376,0.04-1.214,0.118-2.516
			c0.079-1.303,0.118-2.422,0.118-3.358c0-1.017-0.049-1.843-0.146-2.478c-0.097-0.635-0.257-1.177-0.476-1.625
			c0.302-0.179,0.612-0.314,0.932-0.408s0.634-0.142,0.946-0.142c0.378,0,0.637,0.092,0.776,0.274
			c0.14,0.184,0.209,0.523,0.209,1.02c0,0.13-0.039,0.843-0.118,2.138c-0.078,1.293-0.118,2.523-0.118,3.687
			c0,1.091,0.057,1.994,0.17,2.71C250.454,114.142,250.626,114.732,250.86,115.197z M250.761,99.897
			c0,0.462-0.163,0.846-0.491,1.155c-0.327,0.307-0.741,0.461-1.241,0.461c-0.434,0-0.777-0.122-1.032-0.365
			c-0.253-0.242-0.381-0.57-0.381-0.983c0-0.455,0.165-0.84,0.492-1.16c0.328-0.32,0.725-0.48,1.191-0.48
			c0.427,0,0.776,0.129,1.052,0.389C250.624,99.172,250.761,99.5,250.761,99.897z"/>
		<path d="M256.141,111.11c-0.794-0.399-1.389-0.895-1.787-1.484c-0.396-0.59-0.595-1.271-0.595-2.044
			c0-1.246,0.451-2.274,1.354-3.084c0.901-0.81,2.062-1.215,3.484-1.215c0.408,0,0.823,0.061,1.248,0.182
			c0.426,0.122,0.861,0.298,1.312,0.533c0.913-0.244,1.59-0.463,2.031-0.663c0.439-0.199,0.72-0.4,0.843-0.603
			c0.157,0.171,0.275,0.349,0.349,0.535c0.076,0.187,0.113,0.381,0.113,0.584c0,0.413-0.155,0.732-0.466,0.955
			c-0.311,0.222-0.842,0.387-1.591,0.493c0.287,0.366,0.498,0.733,0.634,1.101c0.135,0.368,0.204,0.751,0.204,1.15
			c0,1.134-0.44,2.083-1.317,2.846c-0.88,0.763-1.98,1.144-3.306,1.144c-0.163,0-0.336-0.006-0.519-0.018
			c-0.184-0.013-0.368-0.031-0.555-0.056c-0.155,0.155-0.273,0.307-0.354,0.457c-0.082,0.15-0.122,0.299-0.122,0.444
			c0,0.56,0.781,1.011,2.345,1.352c0.366,0.081,0.651,0.143,0.855,0.183c1.533,0.357,2.569,0.77,3.107,1.24
			c0.538,0.467,0.809,1.133,0.809,1.995c0,1.236-0.557,2.258-1.669,3.064c-1.113,0.805-2.544,1.208-4.295,1.208
			c-1.631,0-2.918-0.335-3.863-1.006c-0.946-0.673-1.418-1.578-1.418-2.718c0-0.796,0.233-1.499,0.7-2.105
			c0.466-0.605,1.152-1.104,2.062-1.495c-0.196-0.18-0.344-0.361-0.447-0.548c-0.101-0.187-0.152-0.387-0.152-0.598
			c0-0.268,0.084-0.552,0.251-0.853C255.555,111.783,255.806,111.459,256.141,111.11z M256.955,114.959h0.024
			c-0.681,0.268-1.189,0.598-1.53,0.993c-0.34,0.395-0.51,0.842-0.51,1.346c0,0.747,0.331,1.35,0.993,1.81
			c0.662,0.458,1.546,0.688,2.648,0.688c1.072,0,1.937-0.205,2.601-0.615c0.661-0.411,0.992-0.937,0.992-1.578
			c0-0.966-1.662-1.831-4.985-2.595C257.081,114.984,257.003,114.968,256.955,114.959z M258.55,110.005
			c0.832,0,1.52-0.242,2.063-0.728c0.541-0.485,0.812-1.095,0.812-1.828c0-0.766-0.259-1.384-0.776-1.852
			c-0.519-0.47-1.201-0.704-2.051-0.704c-0.873,0-1.576,0.229-2.112,0.691c-0.533,0.46-0.801,1.065-0.801,1.815
			c0,0.758,0.268,1.382,0.801,1.872C257.023,109.761,257.709,110.005,258.55,110.005z"/>
		<path d="M269.385,115.22c-0.338,0.18-0.646,0.312-0.928,0.397c-0.28,0.086-0.557,0.129-0.83,0.129
			c-0.345,0-0.591-0.117-0.74-0.348c-0.147-0.233-0.222-0.641-0.222-1.229c0-0.197,0.052-1.406,0.157-3.631
			c0.104-2.225,0.157-4.351,0.157-6.381c0-2.004-0.044-3.381-0.132-4.131c-0.089-0.75-0.241-1.324-0.457-1.724
			c0.344-0.18,0.66-0.311,0.945-0.397s0.545-0.129,0.778-0.129c0.377,0,0.636,0.108,0.777,0.324
			c0.141,0.216,0.212,0.642,0.212,1.277c0,0.147-0.021,0.559-0.06,1.235c-0.171,2.925-0.256,5.757-0.256,8.495
			c1.718-1.394,3.039-2.546,3.959-3.459c0.922-0.913,1.528-1.662,1.821-2.25c0.565,0.204,0.961,0.404,1.189,0.598
			c0.229,0.197,0.344,0.425,0.344,0.686c0,0.351-1.039,1.332-3.113,2.947c-0.924,0.717-1.659,1.295-2.207,1.735
			c0.155,0.147,0.38,0.354,0.674,0.624c3.199,3.022,5.073,4.534,5.62,4.534h0.049c-0.073,0.486-0.216,0.859-0.429,1.114
			c-0.213,0.254-0.485,0.383-0.818,0.383c-0.547,0-1.712-0.908-3.496-2.724c-1.426-1.447-2.632-2.617-3.617-3.504v0.551
			c0,1.319,0.05,2.364,0.149,3.128C269.012,114.238,269.17,114.821,269.385,115.22z"/>
		<path d="M286.9,113.147c0.175,0.219,0.304,0.425,0.388,0.617c0.083,0.192,0.125,0.377,0.125,0.557
			c0,0.441-0.327,0.801-0.979,1.083c-0.653,0.281-1.509,0.421-2.563,0.421c-1.939,0-3.46-0.531-4.558-1.592
			c-1.102-1.062-1.65-2.529-1.65-4.4c0-1.887,0.554-3.431,1.665-4.632c1.109-1.199,2.534-1.8,4.274-1.8
			c1.341,0,2.442,0.383,3.304,1.149c0.862,0.765,1.294,1.742,1.294,2.932c0,0.938-0.357,1.606-1.072,2.005
			c-0.716,0.399-1.931,0.599-3.645,0.599c-0.642,0-1.283-0.022-1.919-0.068c-0.64-0.044-1.271-0.112-1.896-0.201v0.172
			c0,1.263,0.372,2.265,1.119,3.002c0.747,0.737,1.763,1.105,3.045,1.105c0.603,0,1.157-0.079,1.669-0.237
			C286.01,113.7,286.477,113.461,286.9,113.147z M279.813,108.36c0.537,0.091,1.128,0.157,1.775,0.202
			c0.647,0.045,1.346,0.068,2.094,0.068c1.016,0,1.697-0.094,2.038-0.28c0.342-0.187,0.513-0.525,0.513-1.014
			c0-0.74-0.257-1.325-0.77-1.755c-0.512-0.432-1.213-0.647-2.1-0.647c-0.943,0-1.728,0.301-2.354,0.903
			C280.383,106.438,279.984,107.279,279.813,108.36z"/>
		<path d="M293.778,115.197c-0.346,0.187-0.676,0.325-0.988,0.415c-0.313,0.09-0.613,0.134-0.902,0.134
			c-0.404,0-0.678-0.107-0.822-0.323c-0.145-0.216-0.216-0.649-0.216-1.3c0-0.376,0.039-1.214,0.118-2.516
			c0.078-1.303,0.118-2.422,0.118-3.358c0-1.017-0.05-1.843-0.147-2.478s-0.256-1.177-0.475-1.625c0.3-0.179,0.61-0.314,0.93-0.408
			c0.32-0.093,0.636-0.142,0.947-0.142c0.379,0,0.637,0.092,0.777,0.274c0.139,0.184,0.209,0.523,0.209,1.02
			c0,0.13-0.04,0.843-0.118,2.138c-0.079,1.293-0.118,2.523-0.118,3.687c0,1.091,0.057,1.994,0.168,2.71
			C293.371,114.142,293.544,114.732,293.778,115.197z M293.68,99.897c0,0.462-0.165,0.846-0.491,1.155
			c-0.328,0.307-0.742,0.461-1.241,0.461c-0.436,0-0.779-0.122-1.032-0.365c-0.255-0.242-0.381-0.57-0.381-0.983
			c0-0.455,0.163-0.84,0.491-1.16c0.327-0.32,0.725-0.48,1.192-0.48c0.425,0,0.776,0.129,1.05,0.389
			C293.542,99.172,293.68,99.5,293.68,99.897z"/>
		<path d="M297.85,105.956c-0.138,0-0.33,0.006-0.575,0.02s-0.404,0.02-0.477,0.02c-0.335,0-0.57-0.046-0.705-0.141
			c-0.136-0.093-0.201-0.253-0.201-0.481c0-0.106,0.017-0.231,0.054-0.374s0.096-0.302,0.178-0.482c0.065,0,0.176,0.004,0.331,0.012
			c0.154,0.007,0.277,0.011,0.368,0.011c0.212,0,0.551-0.011,1.018-0.036c0.057,0,0.101-0.005,0.134-0.012
			c0-0.091,0.004-0.224,0.013-0.403c0.009-0.179,0.012-0.31,0.012-0.392c0-0.635-0.04-1.196-0.124-1.68
			c-0.081-0.484-0.209-0.909-0.381-1.277c0.351-0.17,0.664-0.301,0.941-0.392c0.277-0.089,0.514-0.134,0.71-0.134
			c0.334,0,0.575,0.104,0.728,0.312c0.15,0.208,0.227,0.548,0.227,1.02c0,0.204-0.036,0.844-0.107,1.918
			c-0.023,0.401-0.043,0.718-0.06,0.954c0.477-0.064,0.904-0.113,1.286-0.145c0.381-0.032,0.724-0.048,1.027-0.048
			c0.27,0,0.466,0.049,0.583,0.146c0.121,0.097,0.18,0.256,0.18,0.475c0,0.122-0.037,0.274-0.11,0.457
			c-0.075,0.182-0.182,0.386-0.322,0.613c-0.213-0.053-0.438-0.092-0.676-0.118c-0.235-0.026-0.523-0.04-0.857-0.04
			c-0.06,0-0.229,0.006-0.517,0.02c-0.286,0.013-0.531,0.023-0.736,0.033c-0.071,1.27-0.123,2.315-0.155,3.138
			c-0.032,0.821-0.047,1.493-0.047,2.014c0,1.131,0.1,1.923,0.3,2.375c0.199,0.452,0.535,0.677,1.008,0.677
			c0.13,0,0.266-0.026,0.408-0.075c0.143-0.052,0.287-0.13,0.435-0.24c0.073,0.164,0.127,0.306,0.16,0.426
			c0.031,0.123,0.049,0.233,0.049,0.33c0,0.4-0.166,0.727-0.496,0.983c-0.332,0.257-0.764,0.384-1.296,0.384
			c-0.882,0-1.539-0.29-1.968-0.871c-0.431-0.58-0.644-1.472-0.644-2.673c0-0.342,0.04-1.246,0.122-2.711
			C297.749,108.102,297.81,106.898,297.85,105.956z"/>
	</g>
	<path fill="#DDA015" d="M87.944,33.394c-1.963,4.218-3.67,7.12-3.915,11.377c-1.247,21.607,0.665,27.154,0.239,43.07
		c-0.204,7.662,1.274-9.786-0.376,9.564c-0.357,4.188-0.773,10.196,2.757,8.847c2.915-1.116,1.119-14.491,1.959-19.423
		c2.047-14.765-0.291,0.66,0.28-14.076c0.419-2.466,2.059-10.103,1.99-12.559c0.648-7.242-2.13-14.743,1.131-18.955
		c1.93-2.492,12.948,0.456,11.766-1.689c-1.353-2.461-3.099-6.956-4.549-9.977c-2.243-4.674-4.089-9.308-4.656-9.167
		C93.526,20.665,88.872,31.403,87.944,33.394z"/>
	<path fill="#DDA015" d="M192.559,58.653c-2.825,0.202-3.533,0.535-6.478,0.994c-2.941-0.032,0.59-1.536-2.368-0.092
		c0.007-0.493-38.578,2.04-41.348,2.064c-6.883,0.067-19.586-3.738-23.403-1.434c-1.385,0.838-6.979,12.718-9.953,15.63
		c-2.468,1.441-8.35,2.719-8.314-0.714c0.014-1.406,0-2.816-0.029-4.208c-0.026-1.225-0.063-2.441-0.101-3.654
		c-0.076-2.302-0.104-8.601-0.13-10.868c0.245-5.103,0.587-12.116,0.912-15.542c0.109-1.141-2.825-0.896-2.682-1.311
		c-1.655-2.402,4.406-0.373,5.194,0.484c-0.015,8.66,1.422,9.898,0.447,23.176c-0.29,3.936-0.845,9.834,2.113,9.376
		c4.924-0.767,6.664-12.924,11.606-16.305c1.979-1.938,7.332-2.639,10.263-2.12c4.407,0.543,9.761-0.49,14.168-0.439
		c8.336,0.091,14.329,0.523,22.662,0.614c2.442,0.515,5.377,1.53,8.318,1.56c8.34-0.401,11.508-0.538,17.706,1.781"/>
	<g>
		<path fill="#DDA015" d="M96.576,18.951c0,1.025-0.865,1.856-1.95,1.856c-1.075,0-1.953-0.831-1.953-1.856
			c0-1.024,0.878-1.856,1.953-1.856C95.711,17.095,96.576,17.927,96.576,18.951z"/>
		<rect x="94.224" y="10.501" fill="#DDA015" width="0.748" height="10.013"/>
		<rect x="92" y="12.25" fill="#DDA015" width="5.167" height="0.748"/>
	</g>
	<g>
		<path fill="#811788" d="M3.919,52.383C4.25,62.544,5.004,72.986,4.455,83.14c-0.014,1.219-0.469,2.227-0.702,3.446
			C3.279,89.422,3.989,92.162,3.736,95c-0.471,2.637-3.105,10.282-3.309,12.529c-0.407,4.463-0.862,12.75,0.392,13.439
			c0.887,0.483,1.801-0.819,1.807-1.221c0.907-2.024,0.487-4.061,0.953-6.291c0.466-1.821,0.455-2.818,1.364-4.645
			c2.042-4.442,5.92-8.885,5.972-13.764c0,0,0.486-4.461,0.288-6.293c0.031-2.843-0.098-11.583-0.311-12.395
			c-0.434-1.022,0.024-2.236,0.034-3.25c-0.612-5.088-0.283-12.796-0.463-15.01c-0.133-1.661-0.624-4.25-0.641-6.125
			c-0.03-3.945-2.791-7.74-1.447-9.654c0.707-1,3.538-0.844,2.73-2.321c-0.346-0.636-3.973,1.321-4.147,1.22
			c-0.552-0.309-1.741-0.145-2.085,0.469C4.642,42.499,3.938,50.352,3.919,52.383z"/>
		<path fill="#811788" d="M10.335,41.241c-3.19,0.726-8.061,1.699-7.353,0.051c0.605-1.414,4.128-2.854,5.139-3.508
			c3.137-2.032,12.493-11.814,13.722-11.076c1.607,0.963,9.173,9.213,9.168,9.415c2.608,2.273,6.016,4.415,7.269,5.331
			c0.346,0.254,1.598,1.712,1.591,2.116c-0.01,0.612-1.078,0.557-1.487,0.349c-0.799-0.826-8.886-3.479-9.301-2.884
			c-1.205-1.024-7.55-0.952-8.159-0.96C15.188,40.026,14.258,40.352,10.335,41.241z"/>
		<path fill="#811788" d="M88.229,25.334c0.803-1.079,0.629-4.886-0.943-6.455c-0.975-0.98-6.155-2.78-8.314-4.94
			c-1.102-0.226-3.394,1.296-5.741,2.3c-2.676,1.129-3.76,1.056-5.757,3.055c-0.504,1.738,2.719,1.439,3.951,1.17
			c0.246,0.01,1.914-0.368,2.337-0.25c1.231,0.309,7.359,0.201,7.611,0.208C89.518,19.195,87.634,26.127,88.229,25.334z"/>
		<path fill="#811788" d="M66.658,25.156c0.195-2.112-0.431-4.828,0.445-6.382c0.336-0.592,1.842-0.773,2.294-1.046
			c4.088,0.96,0.543,0.516-0.021,2.288c-1.091,3.441-0.089,9.773,0.432,11.74c0.316,1.179,1.219,17.009,1.218,17.21
			c-0.007,0.614-0.048,11.663-0.061,12.476c-0.648,3.042-0.711,13.931-5.885,17.14c-3.8,2.357-6.225,0.292-15.646,0.587
			c-2.599,0.076-7.201-5.199-9.591-8.686c-0.999-1.236-2.403-2.271-2.382-3.896c-0.144-4.062-0.765-14.154-0.803-18.258
			c-0.012-1.215,0.331-1.638,0.735-2.707c0.154-0.409-0.153-1.979-1.044-2.597c-1.506-1.048,2.652,0.433,2.924,0.437
			c0.406,0.21,0.769,0.076,0.562,0.279c-0.312,3.155-0.361,10.97-0.183,12.792c0.188,1.02,0.22,8.108,0.817,9.133
			c1.792,2.665,5.032,6.056,6.757,7.345c2.953,2.215,13.29,0.371,16.245,0.029c4.621-0.529,3.61-18.234,3.134-27.588
			C66.463,41.185,66.272,29.409,66.658,25.156z"/>
		<g>
			<path fill="#811788" d="M80.561,9.867c0,1.092-0.922,1.978-2.078,1.978c-1.146,0-2.082-0.886-2.082-1.978
				c0-1.091,0.936-1.978,2.082-1.978C79.638,7.889,80.561,8.775,80.561,9.867z"/>
			<rect x="78.098" fill="#811788" width="0.748" height="14.229"/>
			<rect x="76.381" y="3.589" fill="#811788" width="4.178" height="0.748"/>
		</g>
		<g>
			<path fill="#811788" d="M22.511,24.402c0,0.479-0.405,0.868-0.912,0.868c-0.503,0-0.914-0.389-0.914-0.868
				s0.411-0.868,0.914-0.868C22.106,23.534,22.511,23.923,22.511,24.402z"/>
			<polygon fill="#811788" points="22.01,26.908 21.111,26.908 21.272,25.057 21.866,25.057 			"/>
			<g>
				<rect x="21.382" y="21.297" fill="#811788" width="0.43" height="2.279"/>
				<rect x="20.457" y="22.204" fill="#811788" width="2.279" height="0.43"/>
			</g>
		</g>
	</g>
</g>
</svg>
