<?xml version="1.0" encoding="utf-8"?>
<!-- Generator: Adobe Illustrator 15.0.0, SVG Export Plug-In . SVG Version: 6.00 Build 0)  -->
<svg version="1.2" baseProfile="tiny" id="Phone" xmlns="http://www.w3.org/2000/svg" xmlns:xlink="http://www.w3.org/1999/xlink"
	 x="0px" y="0px" width="314.063px" height="314.064px" viewBox="0 0 314.063 314.064" overflow="inherit" xml:space="preserve">
<path d="M293.001,78.528C249.646,3.433,153.618-22.298,78.529,21.066C3.434,64.416-22.298,160.44,21.066,235.532
	c43.35,75.095,139.375,100.83,214.465,57.47C310.626,249.638,336.371,153.618,293.001,78.528z M219.833,265.799
	c-60.066,34.692-136.894,14.106-171.576-45.973C13.568,159.759,34.161,82.933,94.23,48.258
	c60.07-34.69,136.894-14.106,171.578,45.971C300.493,154.305,279.906,231.115,219.833,265.799z"/>
<path d="M231.202,201.565l-23.519-23.521c-4.685-4.666-12.442-4.524-17.29,0.324l-11.849,11.847
	c-0.748-0.413-1.523-0.843-2.338-1.301c-7.482-4.146-17.723-9.828-28.499-20.612c-10.808-10.807-16.495-21.063-20.654-28.551
	c-0.438-0.793-0.858-1.558-1.274-2.283l7.952-7.941l3.909-3.914c4.855-4.856,4.99-12.611,0.316-17.291l-23.519-23.523
	c-4.674-4.672-12.435-4.531-17.29,0.326l-6.628,6.666l0.181,0.18c-2.223,2.836-4.079,6.106-5.461,9.634
	c-1.274,3.357-2.067,6.562-2.43,9.772c-3.105,25.745,8.659,49.274,40.586,81.202c44.135,44.131,79.699,40.796,81.234,40.634
	c3.342-0.399,6.544-1.198,9.799-2.462c3.496-1.366,6.765-3.221,9.6-5.438l0.145,0.128l6.715-6.575
	C235.733,214.01,235.873,206.252,231.202,201.565z"/>
</svg>
