<?xml version="1.0" encoding="utf-8"?>
<!-- Generator: Adobe Illustrator 15.0.0, SVG Export Plug-In . SVG Version: 6.00 Build 0)  -->
<svg version="1.2" baseProfile="tiny" xmlns="http://www.w3.org/2000/svg" xmlns:xlink="http://www.w3.org/1999/xlink" x="0px"
	 y="0px" width="314.063px" height="314.064px" viewBox="0 0 314.063 314.064" overflow="inherit" xml:space="preserve">
<g id="Play">
	<path d="M293.001,78.528C249.646,3.433,153.618-22.298,78.529,21.066C3.434,64.416-22.298,160.44,21.066,235.532
		c43.35,75.095,139.375,100.83,214.465,57.47C310.626,249.638,336.371,153.618,293.001,78.528z M219.833,265.799
		c-60.066,34.692-136.894,14.106-171.576-45.973C13.568,159.759,34.161,82.933,94.23,48.258
		c60.07-34.69,136.894-14.106,171.578,45.971C300.493,154.305,279.906,231.115,219.833,265.799z"/>
	<g id="Layer_2" display="none">
		<path display="inline" d="M216.555,146.588L134.34,98.64c-7.491-4.374-13.534-0.877-13.492,7.789l0.421,95.174
			c0.038,8.664,6.154,12.19,13.669,7.851l81.585-47.103C224.029,158.019,224.044,150.963,216.555,146.588z"/>
	</g>
</g>
<g id="Layer_15">
	<g>
		<path d="M157.264-0.844c-86.338,0-156.31,69.978-156.31,156.309c0,86.338,69.972,156.312,156.31,156.312
			c86.34,0,156.316-69.974,156.316-156.312C313.581,69.134,243.604-0.844,157.264-0.844z M162.844,283.725v-22.193h-18.607v22.193
			C88.414,279.211,33.52,224.32,29,168.493h22.194v-18.612H29C33.52,86.615,88.414,31.716,144.237,27.197v33.368h18.607V27.197
			c63.266,4.519,118.164,59.417,122.679,122.69h-33.358v18.612h33.358C281.008,224.32,226.11,279.211,162.844,283.725z"/>
		<path d="M157.492,138.712c-0.334-0.017-0.652-0.097-0.992-0.097c-2.035,0-3.969,0.416-5.795,1.05l-55.125-38.974l43.499,57.544
			c1.008,8.782,8.374,15.627,17.421,15.627c9.738,0,17.632-7.889,17.632-17.633c0-1.248-0.141-2.465-0.389-3.644l67.432-82.176
			L157.492,138.712z"/>
	</g>
</g>
</svg>
