<?xml version="1.0" encoding="utf-8"?>
<!-- Generator: Adobe Illustrator 15.0.0, SVG Export Plug-In . SVG Version: 6.00 Build 0)  -->
<svg version="1.2" baseProfile="tiny" id="Layer_1" xmlns="http://www.w3.org/2000/svg" xmlns:xlink="http://www.w3.org/1999/xlink"
	 x="0px" y="0px" width="100%" viewBox="0 0 161.822 144.152" overflow="inherit" xml:space="preserve">
<path fill="#D90000" d="M16.621,25.621L10.41,43.386L4.233,25.621H0l8.154,22.38h3.609l8.223-22.38H16.621L16.621,25.621z
	 M35.219,31.548c-1.523-1.793-3.701-2.689-6.535-2.689c-2.795,0-4.964,0.906-6.506,2.718c-1.465,1.696-2.197,3.961-2.197,6.795
	c0,2.833,0.732,5.157,2.197,6.968c1.581,1.966,3.759,2.95,6.535,2.95c2.718,0,4.867-0.993,6.448-2.979
	c1.465-1.831,2.198-4.145,2.198-6.939C37.359,35.5,36.646,33.226,35.219,31.548L35.219,31.548L35.219,31.548z M33.047,43.577
	c-0.947,1.677-2.406,2.516-4.377,2.516c-1.952,0-3.412-0.838-4.377-2.516c-0.773-1.369-1.16-3.104-1.16-5.205
	c0-2.024,0.406-3.653,1.218-4.887c0.966-1.445,2.416-2.168,4.349-2.168c1.914,0,3.344,0.733,4.291,2.198
	c0.812,1.234,1.217,2.853,1.217,4.858C34.207,40.493,33.82,42.228,33.047,43.577L33.047,43.577L33.047,43.577z M47.855,38.314
	l5.87-8.993h-3.007l-4.54,7.142l-4.222-7.142h-3.701l5.61,9.224l-6.102,9.282h3.094l4.742-7.402l4.395,7.402h3.759L47.855,38.314
	L47.855,38.314z"/>
<path fill="#D90000" d="M78.697,98.962c-2.244,0.926-4.569,1.389-6.974,1.389c-2.337,0-4.188-0.866-5.552-2.599
	c-1.249-1.593-1.874-3.59-1.874-5.99c0-2.816,0.833-5.057,2.499-6.719c1.596-1.616,3.654-2.4,6.176-2.354
	c0.994,0.023,2.082,0.162,3.262,0.416c0.486,0.116,0.971,0.243,1.457,0.382V81.3c-2.341-1.133-4.566-1.63-6.675-1.491
	c-3.037,0.186-5.546,1.376-7.528,3.573c-1.982,2.198-2.973,4.847-2.973,7.946c0,3.285,0.927,6.037,2.781,8.258
	c1.97,2.36,4.566,3.539,7.787,3.539c1.066,0,2.358-0.185,3.876-0.555s2.764-0.833,3.737-1.388V98.962L78.697,98.962z M94.041,87.593
	c-1.402-1.648-3.406-2.474-6.014-2.474c-2.57,0-4.566,0.834-5.984,2.501c-1.349,1.562-2.022,3.645-2.022,6.251
	c0,2.607,0.674,4.745,2.022,6.411c1.453,1.809,3.457,2.714,6.012,2.714c2.5,0,4.479-0.913,5.932-2.74
	c1.348-1.685,2.021-3.812,2.021-6.385C96.008,91.23,95.352,89.137,94.041,87.593L94.041,87.593L94.041,87.593z M92.041,98.661
	c-0.871,1.543-2.213,2.314-4.027,2.314c-1.795,0-3.137-0.771-4.025-2.314c-0.713-1.259-1.068-2.854-1.068-4.789
	c0-1.862,0.373-3.359,1.121-4.495c0.889-1.331,2.223-1.996,4-1.996c1.76,0,3.076,0.676,3.947,2.022
	c0.748,1.135,1.121,2.625,1.121,4.469C93.109,95.823,92.754,97.419,92.041,98.661L92.041,98.661L92.041,98.661z M105.719,94.857
	c1.436-0.177,2.562-0.688,3.377-1.53c0.816-0.842,1.225-1.973,1.225-3.392c0-1.384-0.521-2.475-1.566-3.272
	c-0.955-0.745-2.141-1.117-3.557-1.117h-6.715v17.025h2.9v-7.555l1.17,0.08l5.16,7.475h3.725L105.719,94.857L105.719,94.857z
	 M106.17,92.706c-0.727,0.547-1.604,0.82-2.633,0.82c-0.23,0-0.949-0.044-2.154-0.133v-5.64c1.24-0.053,2.172-0.08,2.793-0.08
	c2.127,0,3.191,0.884,3.191,2.648C107.367,91.329,106.969,92.123,106.17,92.706L106.17,92.706L106.17,92.706z M126.203,87.593
	c-1.402-1.648-3.406-2.474-6.012-2.474c-2.572,0-4.568,0.834-5.986,2.501c-1.348,1.562-2.023,3.645-2.023,6.251
	c0,2.607,0.676,4.745,2.023,6.411c1.453,1.809,3.457,2.714,6.012,2.714c2.5,0,4.479-0.913,5.932-2.74
	c1.348-1.685,2.021-3.812,2.021-6.385C128.17,91.23,127.514,89.137,126.203,87.593L126.203,87.593L126.203,87.593z M124.205,98.661
	c-0.873,1.543-2.215,2.314-4.029,2.314c-1.795,0-3.137-0.771-4.025-2.314c-0.713-1.259-1.068-2.854-1.068-4.789
	c0-1.862,0.373-3.359,1.121-4.495c0.889-1.331,2.223-1.996,4-1.996c1.76,0,3.076,0.676,3.947,2.022
	c0.748,1.135,1.121,2.625,1.121,4.469C125.271,95.823,124.916,97.419,124.205,98.661L124.205,98.661L124.205,98.661z
	 M144.078,85.545h-2.5v12.609c-4.434-7.625-6.873-11.829-7.316-12.609h-3.617v17.025h2.502V89.35l7.688,13.328h3.244V85.545
	L144.078,85.545z M155.57,85.413h-3.512l-6.305,17.158h2.58l1.676-4.682h6.918l1.648,4.682h3.246L155.57,85.413L155.57,85.413z
	 M150.756,95.76l2.74-7.848l2.74,7.848H150.756L150.756,95.76z"/>
<path fill="#FFFFFF" d="M86.119,81.874c-0.012-0.067-0.025-0.135-0.043-0.2c-0.73-2.68-1.873-4.992-3.426-6.935
	c-1.556-1.941-3.468-3.448-5.74-4.52c-2.271-1.071-4.84-1.528-7.704-1.373c-0.355-2.443-0.669-4.854-0.943-7.232
	c-0.275-2.376-0.475-4.912-0.6-7.604c2.039-1.72,4.02-3.762,5.945-6.127c1.924-2.364,3.612-5.072,5.066-8.125
	c1.453-3.052,2.575-6.437,3.364-10.153c0.791-3.716,1.068-7.786,0.84-12.209c-0.066-1.281-0.348-3.036-0.848-5.261
	c-0.5-2.225-1.141-4.342-1.922-6.354c-0.783-2.01-1.703-3.594-2.762-4.751c-1.06-1.156-2.153-1.338-3.28-0.547
	c-2.085,1.463-3.896,3.736-5.433,6.817c-1.538,3.083-2.731,6.561-3.581,10.433c-0.85,3.875-1.337,7.968-1.459,12.283
	c-0.124,4.315,0.158,8.469,0.843,12.459c-2.043,1.848-4.287,3.881-6.728,6.1c-2.442,2.218-4.783,4.713-7.023,7.481
	c-2.241,2.77-4.202,5.789-5.883,9.057c-1.681,3.27-2.755,6.879-3.223,10.83c-0.688,5.543-0.369,10.562,0.959,15.055
	c1.327,4.495,3.394,8.278,6.201,11.352c2.806,3.073,6.204,5.352,10.193,6.835c3.989,1.482,8.271,2.017,12.85,1.601
	c-0.069,1.981,0.037,4.049,0.319,6.202c0.282,2.154,0.538,4.275,0.768,6.361c0.229,2.089,0.336,4.125,0.323,6.106
	c-0.015,1.982-0.355,3.858-1.021,5.627c-0.663,1.641-1.688,3.076-3.078,4.309c-1.391,1.23-2.932,2.071-4.624,2.525
	c-1.693,0.452-3.397,0.457-5.113,0.014s-3.204-1.521-4.464-3.228c1.429-0.015,2.667-0.42,3.712-1.214
	c1.044-0.796,1.862-1.775,2.453-2.938c0.589-1.163,0.964-2.446,1.124-3.848c0.158-1.403,0.039-2.718-0.357-3.948
	c-0.398-1.229-1.048-2.275-1.952-3.139c-0.905-0.863-2.097-1.353-3.577-1.469c-1.643-0.186-3.115,0.243-4.416,1.285
	c-1.302,1.044-2.297,2.4-2.987,4.07c-0.691,1.671-1.017,3.5-0.975,5.485c0.041,1.985,0.581,3.827,1.621,5.528
	c0.938,1.504,2.119,2.681,3.547,3.53c1.426,0.851,2.959,1.448,4.597,1.793c1.637,0.346,3.326,0.404,5.065,0.178
	c1.739-0.229,3.365-0.716,4.875-1.462c1.51-0.748,2.851-1.741,4.021-2.979c1.169-1.24,2.033-2.713,2.587-4.421
	c0.679-2.152,0.984-4.205,0.916-6.159c-0.069-1.954-0.249-3.911-0.537-5.874c-0.29-1.961-0.59-3.987-0.901-6.078
	c-0.312-2.09-0.372-4.315-0.179-6.677c1.575-1.033,3.113-2.162,4.613-3.391c1.171-0.958,2.496-2.308,3.486-3.492
	c0.01-0.012,0.011-0.02,0.021-0.03c-0.414-0.252-0.799-0.543-1.165-0.858c-4.567,5.107-9.443,6.232-14.967,5.812
	c-2.029-0.167-3.965-0.618-5.808-1.355c-1.844-0.735-3.529-1.658-5.057-2.768c-1.528-1.109-2.796-2.224-3.8-3.348
	c-2.167-2.507-3.585-5.196-4.254-8.067c-0.67-2.87-0.802-5.787-0.395-8.748c0.405-2.962,1.263-5.874,2.573-8.741
	c1.309-2.865,2.875-5.563,4.694-8.091c1.82-2.528,3.783-4.826,5.89-6.897c2.106-2.07,4.171-3.742,6.195-5.015
	c0.296,0.97,0.519,2.034,0.672,3.191c0.151,1.157,0.289,2.347,0.412,3.566c0.122,1.22,0.245,2.441,0.367,3.66
	c0.123,1.22,0.301,2.378,0.539,3.474c-1.338,0.529-2.682,1.219-4.031,2.067c-1.349,0.85-2.594,1.846-3.732,2.989
	c-1.141,1.146-2.121,2.455-2.941,3.929c-0.822,1.476-1.374,3.104-1.655,4.886c-0.349,2.1-0.376,4.065-0.083,5.899
	c0.293,1.834,0.839,3.502,1.64,5.001c0.271,0.508,0.577,0.982,0.897,1.443c-0.357-1.44-0.592-2.951-0.592-4.598
	c0-4.04,1.291-7.491,3.875-10.356c7.878-7.39,18.317-3.644,23.587,1.589C85.018,82.006,85.557,81.927,86.119,81.874L86.119,81.874z
	 M66.07,40.613c-0.055-1.601-0.059-3.458-0.012-5.567c0.045-2.11,0.231-4.263,0.556-6.459s0.771-4.355,1.34-6.48
	c0.569-2.123,1.306-3.986,2.215-5.585c0.907-1.6,2.022-2.824,3.344-3.675c1.321-0.849,2.856-1.115,4.604-0.799
	c1.26,1.708,1.966,3.509,2.121,5.401c0.153,1.894-0.05,3.806-0.613,5.738c-0.562,1.933-1.398,3.807-2.505,5.624
	c-1.108,1.818-2.322,3.503-3.64,5.056c-1.319,1.554-2.631,2.917-3.936,4.086C68.237,39.121,67.08,40.009,66.07,40.613L66.07,40.613z
	"/>
<path fill="#FFFFFF" d="M82.332,116.454l3.643-4.424h-1.607l-3.735,4.776l3.934,5.021h1.99L82.332,116.454L82.332,116.454z
	 M80.617,112.03h-1.668v9.797h1.668V112.03L80.617,112.03z M90.26,111.893c-0.152-0.144-0.332-0.215-0.535-0.215
	s-0.381,0.066-0.527,0.198c-0.148,0.133-0.223,0.296-0.223,0.49c0,0.204,0.076,0.378,0.23,0.521c0.152,0.143,0.33,0.214,0.535,0.214
	c0.203,0,0.381-0.066,0.527-0.199c0.148-0.133,0.223-0.296,0.223-0.49C90.49,112.208,90.414,112.036,90.26,111.893L90.26,111.893z
	 M93.016,111.893c-0.152-0.144-0.332-0.215-0.535-0.215c-0.205,0-0.381,0.066-0.529,0.198c-0.148,0.133-0.221,0.296-0.221,0.49
	c0,0.204,0.076,0.378,0.229,0.521c0.154,0.143,0.332,0.214,0.537,0.214c0.203,0,0.379-0.066,0.527-0.199s0.223-0.296,0.223-0.49
	C93.246,112.208,93.168,112.036,93.016,111.893L93.016,111.893z M93.949,114.939c-0.643-0.694-1.592-1.041-2.848-1.041
	c-1.254,0-2.203,0.347-2.846,1.041c-0.643,0.693-0.965,1.674-0.965,2.938c0,1.266,0.316,2.255,0.949,2.97
	c0.664,0.766,1.617,1.148,2.861,1.148c1.256,0,2.215-0.378,2.879-1.133c0.621-0.714,0.934-1.709,0.934-2.985
	C94.914,116.613,94.592,115.632,93.949,114.939L93.949,114.939z M92.816,119.929c-0.389,0.643-0.959,0.964-1.715,0.964
	c-0.754,0-1.326-0.321-1.715-0.964c-0.314-0.531-0.473-1.199-0.473-2.006c0-0.785,0.168-1.443,0.504-1.975
	c0.389-0.633,0.949-0.949,1.684-0.949c0.736,0,1.303,0.316,1.699,0.949c0.326,0.531,0.49,1.189,0.49,1.975
	C93.291,118.73,93.133,119.398,92.816,119.929L92.816,119.929L92.816,119.929z M103.088,116.638c0-0.797-0.178-1.435-0.535-1.914
	c-0.408-0.53-1-0.796-1.775-0.796c-0.797,0-1.721,0.297-2.771,0.888v-0.689h-1.668v7.7h1.668v-6.122
	c0.846-0.368,1.547-0.552,2.098-0.552c0.561,0,0.938,0.215,1.133,0.644c0.123,0.277,0.184,0.742,0.184,1.397v4.633h1.668V116.638
	L103.088,116.638z M106.547,111.509c-0.184-0.174-0.402-0.26-0.658-0.26s-0.477,0.086-0.666,0.26
	c-0.188,0.174-0.281,0.389-0.281,0.644c0,0.245,0.094,0.454,0.281,0.627c0.189,0.174,0.41,0.261,0.666,0.261
	c0.246,0,0.461-0.087,0.65-0.261c0.189-0.173,0.283-0.382,0.283-0.627C106.822,111.898,106.732,111.683,106.547,111.509
	L106.547,111.509z M106.701,114.126h-1.67v7.7h1.67V114.126L106.701,114.126z M115.334,113.867l-2.496,0.23
	c-0.377-0.112-0.801-0.169-1.27-0.169c-2.154,0-3.23,0.942-3.23,2.827c0,1.173,0.475,2.023,1.424,2.554
	c-0.734,0.732-1.098,1.299-1.086,1.695c0.01,0.479,0.463,0.771,1.361,0.871c0.848,0.041,1.689,0.082,2.527,0.123
	c0.896,0.081,1.346,0.352,1.346,0.811c0,0.458-0.393,0.814-1.178,1.069c-0.572,0.184-1.158,0.275-1.762,0.275
	c-1.029,0-1.924-0.184-2.678-0.551v1.056c0.867,0.48,1.744,0.719,2.633,0.719c1.08,0,2.016-0.178,2.801-0.535
	c1.031-0.47,1.547-1.179,1.547-2.128c0-0.907-0.486-1.51-1.455-1.806c-0.512-0.153-1.367-0.229-2.572-0.229
	c-0.723,0-1.086-0.158-1.086-0.475c0-0.143,0.092-0.347,0.275-0.613c0.348,0.082,0.678,0.123,0.994,0.123
	c0.898,0,1.686-0.261,2.357-0.782c0.736-0.574,1.102-1.302,1.102-2.182c0-0.707-0.223-1.31-0.672-1.812
	c0.49,0,0.861,0.015,1.117,0.046V113.867L115.334,113.867z M112.838,118.199c-0.305,0.429-0.725,0.643-1.254,0.643
	c-0.531,0-0.945-0.219-1.24-0.657c-0.266-0.377-0.398-0.843-0.398-1.394c0-0.521,0.146-0.959,0.436-1.315
	c0.291-0.358,0.693-0.536,1.203-0.536c0.52,0,0.928,0.176,1.225,0.527c0.295,0.353,0.443,0.794,0.443,1.324
	C113.252,117.341,113.115,117.812,112.838,118.199L112.838,118.199L112.838,118.199z M121.119,117.862
	c-0.09-0.05-0.734-0.306-1.928-0.765c-0.684-0.266-1.025-0.603-1.025-1.011c0-0.388,0.213-0.679,0.643-0.873
	c0.326-0.152,0.715-0.229,1.162-0.229c0.604,0,1.18,0.132,1.73,0.397v-0.948c-0.764-0.337-1.521-0.506-2.264-0.506
	c-0.746,0-1.389,0.198-1.93,0.597c-0.582,0.45-0.873,1.036-0.873,1.761c0,0.765,0.342,1.353,1.025,1.76
	c0.072,0.041,0.709,0.296,1.914,0.767c0.684,0.265,1.025,0.606,1.025,1.024c0,0.348-0.152,0.618-0.459,0.812
	c-0.266,0.184-0.582,0.275-0.949,0.275c-0.398,0-0.832-0.076-1.301-0.229c-0.502-0.163-0.895-0.367-1.18-0.612v1.226
	c0.766,0.479,1.588,0.719,2.465,0.719c0.795,0,1.475-0.194,2.035-0.582c0.623-0.448,0.936-1.056,0.936-1.821
	S121.803,118.271,121.119,117.862L121.119,117.862L121.119,117.862z M130.152,115.199c-0.49-0.847-1.24-1.271-2.25-1.271
	c-1.113,0-2.027,0.47-2.74,1.408v-4.179h-1.67v10.669h1.67l0.014-0.229c0.93,0.284,1.73,0.428,2.404,0.428
	c1.041,0,1.852-0.449,2.434-1.347c0.49-0.775,0.734-1.715,0.734-2.817C130.748,116.771,130.549,115.882,130.152,115.199
	L130.152,115.199L130.152,115.199z M128.621,119.931c-0.379,0.581-0.908,0.87-1.592,0.87c-0.553,0-1.174-0.128-1.867-0.382v-3.328
	c0-0.487,0.213-0.904,0.643-1.252c0.408-0.314,0.861-0.473,1.361-0.473c0.643,0,1.143,0.306,1.5,0.916
	c0.297,0.509,0.445,1.109,0.445,1.801C129.111,118.817,128.947,119.433,128.621,119.931L128.621,119.931L128.621,119.931z
	 M136.611,113.928c-1.316,0-2.209,0.465-2.68,1.393l-0.061-0.015v-1.18h-1.668v7.7h1.668v-5.342
	c0.715-0.776,1.414-1.164,2.098-1.164c0.254,0,0.469,0.031,0.643,0.092V113.928L136.611,113.928z M144.342,114.126h-1.67v5.803
	c-0.867,0.469-1.561,0.703-2.082,0.703c-0.57,0-0.953-0.188-1.146-0.565c-0.123-0.245-0.184-0.685-0.184-1.317v-4.623h-1.67v5.19
	c0,0.796,0.18,1.434,0.537,1.913c0.408,0.531,1,0.796,1.775,0.796c0.797,0,1.719-0.398,2.77-1.194v0.995h1.67V114.126
	L144.342,114.126z M153.143,116.638c0-0.797-0.178-1.435-0.535-1.914c-0.408-0.53-1-0.796-1.775-0.796
	c-0.797,0-1.721,0.297-2.771,0.888v-0.689h-1.668v7.7h1.668v-6.122c0.848-0.368,1.547-0.552,2.098-0.552
	c0.561,0,0.938,0.215,1.133,0.644c0.123,0.277,0.184,0.742,0.184,1.397v4.633h1.668V116.638L153.143,116.638z M161.822,116.638
	c0-0.797-0.18-1.435-0.535-1.914c-0.408-0.53-1-0.796-1.777-0.796c-0.795,0-1.719,0.297-2.77,0.888v-0.689h-1.668v7.7h1.668v-6.122
	c0.846-0.368,1.547-0.552,2.098-0.552c0.561,0,0.938,0.215,1.131,0.644c0.123,0.277,0.186,0.742,0.186,1.397v4.633h1.668V116.638
	L161.822,116.638z"/>
</svg>
