<?xml version="1.0" encoding="utf-8"?>
<!-- Generator: Adobe Illustrator 15.0.0, SVG Export Plug-In . SVG Version: 6.00 Build 0)  -->
<svg version="1.2" baseProfile="tiny" id="Mail" xmlns="http://www.w3.org/2000/svg" xmlns:xlink="http://www.w3.org/1999/xlink"
	 x="0px" y="0px" width="314.063px" height="314.064px" viewBox="0 0 314.063 314.064" overflow="inherit" xml:space="preserve">
<path d="M293.001,78.528C249.646,3.433,153.618-22.298,78.529,21.066C3.434,64.416-22.298,160.44,21.066,235.532
	c43.35,75.095,139.375,100.83,214.465,57.47C310.626,249.638,336.371,153.618,293.001,78.528z M219.833,265.799
	c-60.066,34.692-136.894,14.106-171.576-45.973C13.568,159.759,34.161,82.933,94.23,48.258
	c60.07-34.69,136.894-14.106,171.578,45.971C300.493,154.305,279.906,231.115,219.833,265.799z"/>
<g id="Layer_2_copy_3">
	<path d="M221.234,93.096H92.838c-11.018,0-19.983,8.608-19.983,19.188v89.494c0,10.58,8.965,19.189,19.983,19.189h128.396
		c11.015,0,19.979-8.609,19.979-19.189v-89.494C241.213,101.705,232.249,93.096,221.234,93.096z M221.234,204.026H92.838
		c-1.621,0-3.042-1.049-3.042-2.248V124.12l58.071,49.025c1.192,1.003,2.706,1.558,4.263,1.558h9.806
		c1.561,0,3.074-0.555,4.264-1.558l58.074-49.028v77.661C224.273,202.978,222.852,204.026,221.234,204.026z M157.034,157.882
		l-56.479-47.845h112.958L157.034,157.882z"/>
</g>
</svg>
