<?xml version="1.0" encoding="utf-8"?>
<!-- Generator: Adobe Illustrator 15.0.0, SVG Export Plug-In . SVG Version: 6.00 Build 0)  -->
<svg version="1.2" baseProfile="tiny" id="Team" xmlns="http://www.w3.org/2000/svg" xmlns:xlink="http://www.w3.org/1999/xlink"
	 x="0px" y="0px" width="314.063px" height="314.064px" viewBox="0 0 314.063 314.064" overflow="inherit" xml:space="preserve">
<path d="M293.001,78.528C249.646,3.433,153.618-22.298,78.529,21.066C3.434,64.416-22.298,160.44,21.066,235.532
	c43.35,75.095,139.375,100.83,214.465,57.47C310.626,249.638,336.371,153.618,293.001,78.528z M219.833,265.799
	c-60.066,34.692-136.894,14.106-171.576-45.973C13.568,159.759,34.161,82.933,94.23,48.258
	c60.07-34.69,136.894-14.106,171.578,45.971C300.493,154.305,279.906,231.115,219.833,265.799z"/>
<g id="Layer_2_copy_2">
	<g>
		<g>
			<path d="M157.098,64.196c-10.873,0-19.689,8.815-19.689,19.69c0.012,10.871,8.821,19.68,19.689,19.692
				c10.875,0,19.69-8.815,19.69-19.692C176.789,73.011,167.973,64.196,157.098,64.196z M157.098,97.952
				c-7.768,0-14.065-6.297-14.065-14.066c0.012-7.764,6.303-14.055,14.065-14.063c7.77,0,14.067,6.297,14.067,14.063
				C171.166,91.654,164.868,97.952,157.098,97.952z"/>
		</g>
	</g>
	<g>
		<g>
			<path d="M165.537,106.389h-16.874c-13.98,0.018-25.305,11.342-25.319,25.318v47.822h11.252v53.445h5.626v-64.697h-5.626v5.626
				h-5.625v-42.196c0.011-10.871,8.821-19.677,19.693-19.692h16.874c10.871,0.015,19.681,8.821,19.692,19.692v42.196h-5.627v-5.626
				h-5.626v64.697h5.626v-53.445h11.254v-47.822C190.84,117.731,179.516,106.407,165.537,106.389z"/>
		</g>
	</g>
	<g>
		<g>
			<rect x="154.286" y="179.529" width="5.629" height="53.445"/>
		</g>
	</g>
	<g>
		<g>
			<path d="M213.359,92.325c-9.322,0-16.878,7.557-16.878,16.878c0.009,9.318,7.562,16.869,16.878,16.877
				c9.321,0,16.877-7.556,16.877-16.877C230.236,99.882,222.68,92.325,213.359,92.325z M213.359,120.456
				c-6.213,0-11.252-5.039-11.252-11.252c0-6.213,5.039-11.252,11.252-11.252c6.216,0,11.252,5.039,11.252,11.252
				C224.611,115.417,219.575,120.456,213.359,120.456z"/>
		</g>
	</g>
	<g>
		<g>
			<path d="M221.794,128.893h-25.313v5.626h25.313c7.768,0.011,14.06,6.303,14.067,14.066v36.569h-5.626v-5.625h-5.625v53.445h5.625
				V190.78h11.252v-42.195C241.476,137.714,232.667,128.908,221.794,128.893z"/>
		</g>
	</g>
	<g>
		<g>
			<polygon points="196.481,179.529 196.481,185.154 185.229,185.154 185.229,190.78 196.481,190.78 196.481,232.975 
				202.107,232.975 202.107,179.529 			"/>
		</g>
	</g>
	<g>
		<g>
			<rect x="210.543" y="190.78" width="5.63" height="42.194"/>
		</g>
	</g>
	<g>
		<g>
			<path d="M100.839,92.325c-9.321,0-16.878,7.557-16.878,16.878c0.009,9.318,7.56,16.869,16.878,16.877
				c9.322,0,16.878-7.556,16.878-16.877C117.717,99.882,110.161,92.325,100.839,92.325z M100.839,120.456
				c-6.215,0-11.252-5.039-11.252-11.252c0-6.213,5.037-11.252,11.252-11.252c6.214,0,11.252,5.039,11.252,11.252
				C112.092,115.417,107.053,120.456,100.839,120.456z"/>
		</g>
	</g>
	<g>
		<g>
			<path d="M92.402,128.893c-10.871,0.015-19.681,8.821-19.692,19.692v42.195h11.251v42.194h5.626v-53.445h-5.626v5.625h-5.625
				v-36.569c0.009-7.763,6.3-14.055,14.066-14.066h25.315v-5.626H92.402z"/>
		</g>
	</g>
	<g>
		<g>
			<polygon points="117.717,185.154 117.717,179.529 112.092,179.529 112.092,232.975 117.717,232.975 117.717,190.78 
				128.97,190.78 128.97,185.154 			"/>
		</g>
	</g>
	<g>
		<g>
			<rect x="98.025" y="190.78" width="5.628" height="42.194"/>
		</g>
	</g>
</g>
</svg>
